<svg width="227px" height="227px" xmlns="http://www.w3.org/2000/svg">
  <g transform="translate(-10.5 77.5) rotate(45 124.0 36.0)">
    <rect id="FFC6697E-AE0D-78E2-C1D2-568A-C70DF32B456E" x="2px" y="2px" width="18px" height="17px" />
    <rect id="41C08359-5274-FD81-05A2-3EA2-26AA3F819079" x="22px" y="2px" width="5px" height="17px" />
    <rect id="49E8E894-F986-3B3D-3052-A481-BFB5836F3CB6" x="29px" y="2px" width="5px" height="17px" />
    <rect id="F014DAE9-2A6B-85F7-B65E-8906-52219DEF2281" x="36px" y="2px" width="20px" height="17px" />
    <rect id="A7AC13C7-2F47-E5E1-899C-FA29-44494BCAFBB0" x="58px" y="2px" width="18px" height="17px" />
    <rect id="DE973C22-9C13-8957-D41B-E63C-70A8175A33BB" x="78px" y="2px" width="5px" height="17px" />
    <rect id="B88C52F8-3A37-DDDF-58A1-0559-623D46DA2113" x="85px" y="2px" width="20px" height="17px" />
    <rect id="31CAC38B-D607-1D02-133F-AEBB-2231866C24CB" x="107px" y="2px" width="23px" height="17px" />
    <rect id="78B58898-E483-B91C-825B-5967-34DE5709B556" x="132px" y="2px" width="15px" height="17px" />
    <rect id="06AAD7DA-182F-0C97-BAA2-7025-9B783A4A1D98" x="149px" y="2px" width="10px" height="17px" />
    <rect id="27DFF49D-CA1E-B795-32A6-6CB4-82B134AF6BA5" x="161px" y="2px" width="18px" height="17px" />
    <rect id="CFA60782-3EF7-42C1-82BC-B8D8-5DC8BCCDF53D" x="181px" y="2px" width="4px" height="6px" />
    <rect id="F45CBA0A-F0FE-F131-4176-19B4-82EFB7268B2B" x="187px" y="2px" width="22px" height="6px" />
    <rect id="6D1517AB-BACF-CFC5-9CC1-AECB-FBDA070A8628" x="211px" y="2px" width="35px" height="6px" />
    <rect id="D5A23AD5-1165-3E68-AB51-B6A9-E53F4C489AC1" x="181px" y="10px" width="28px" height="9px" />
    <rect id="9305CE37-F9F8-E9A0-DDD1-9261-09674C89D2D5" x="211px" y="10px" width="24px" height="9px" />
    <rect id="43433634-3736-E1CF-46B0-C01C-B033171EB586" x="237px" y="10px" width="9px" height="42px" />
    <rect id="5D80932B-ACB1-6B2B-1D63-A646-370F95B289E0" x="2px" y="21px" width="25px" height="8px" />
    <rect id="EC8F1B8E-1974-55E0-CB2B-378C-F0DC93D98524" x="29px" y="21px" width="5px" height="18px" />
    <rect id="0DB901A6-B650-65B7-FCCE-9962-7716D2338ED7" x="36px" y="21px" width="12px" height="18px" />
    <rect id="002596F7-BB89-8BE0-B252-4851-625C2B0D6051" x="50px" y="21px" width="6px" height="18px" />
    <rect id="D16F1AB2-C192-763D-D2E8-C264-C1A9E4ED3AF9" x="58px" y="21px" width="18px" height="18px" />
    <rect id="6F0CA518-75C4-290D-DD49-B7F7-21612BB93D62" x="78px" y="21px" width="12px" height="18px" />
    <rect id="32A83E64-702B-64F0-164A-9B24-E64493856F2E" x="92px" y="21px" width="13px" height="18px" />
    <rect id="4F95F6BE-C4FF-A3A8-F518-B03A-3EA2831C970F" x="107px" y="21px" width="23px" height="5px" />
    <rect id="AE9F24EF-AEEB-6B9C-EF1E-190A-D411E08F77BF" x="132px" y="21px" width="15px" height="5px" />
    <rect id="A7F8AA15-52FC-7F65-A7BF-E7EA-E748E7604D1C" x="149px" y="21px" width="30px" height="5px" />
    <rect id="2014103B-38A8-EA6E-E203-6B2D-1F57744D505A" x="181px" y="21px" width="28px" height="11px" />
    <rect id="9926CEF4-7979-58A7-2CED-8AED-927C500B8E1A" x="211px" y="21px" width="24px" height="11px" />
    <rect id="946A59F5-1E16-DBC6-961F-DDAB-BA1CECFE68BB" x="107px" y="28px" width="23px" height="11px" />
    <rect id="45C497D8-A0DD-2C9D-846F-9E65-0C3E572C4BC4" x="132px" y="28px" width="47px" height="11px" />
    <rect id="E9EBC1DF-D247-57E3-DBBC-0C7F-0126CFC1BA51" x="2px" y="31px" width="25px" height="7px" />
    <rect id="8EF8CD9E-CC3A-AE28-BE7C-87A5-C788312B9B90" x="181px" y="34px" width="28px" height="5px" />
    <rect id="08A13932-DD91-2953-6A99-4676-0322E56CEAB1" x="211px" y="34px" width="24px" height="5px" />
    <rect id="FAF430DF-1CD5-4C07-3136-B03B-2CCC3FEDE9FC" x="2px" y="40px" width="14px" height="4px" />
    <rect id="27D30783-CCED-B155-3ED2-EC4F-D0E337622022" x="18px" y="40px" width="9px" height="30px" />
    <rect id="F221CFA2-EA42-E5C7-FEE7-909E-353981605C6E" x="29px" y="41px" width="19px" height="29px" />
    <rect id="18C0EF8D-E657-64A5-4585-EAA2-A958DB390DEB" x="50px" y="41px" width="6px" height="16px" />
    <rect id="602BA229-9BED-D16D-A31B-2F15-E0FD5634E7B2" x="58px" y="41px" width="18px" height="16px" />
    <rect id="7EC8992F-8AE3-E8F6-18F0-324D-2512E04F78BB" x="78px" y="41px" width="12px" height="16px" />
    <rect id="C270D0A2-CCBF-45C7-4DAA-9902-604B395F35F1" x="92px" y="41px" width="13px" height="16px" />
    <rect id="5C3F7F86-F4DB-0A66-1610-C80C-575CE60CE47E" x="107px" y="41px" width="23px" height="8px" />
    <rect id="34653356-C534-2C42-8567-0334-38B2D759A849" x="132px" y="41px" width="47px" height="8px" />
    <rect id="A973BE1C-9E7F-9017-2C4B-7E02-21D2DEE32153" x="181px" y="41px" width="6px" height="4px" />
    <rect id="B9C2B971-1AC2-CA2B-A125-A5A3-8EE105922E48" x="189px" y="41px" width="20px" height="4px" />
    <rect id="EB8C8AF9-FE4C-277B-1996-9F22-545312B1AE10" x="211px" y="41px" width="24px" height="4px" />
    <rect id="6E521C36-5665-F1CB-E562-1C2B-0241F3DCBC74" x="2px" y="46px" width="14px" height="24px" />
    <rect id="2DE7EF08-667C-F134-DF24-C151-286C9BD00962" x="181px" y="47px" width="6px" height="23px" />
    <rect id="1DD8BA41-4906-E031-416C-8737-F13DA05F4461" x="189px" y="47px" width="5px" height="5px" />
    <rect id="BB537CF9-9EAE-EACB-8F63-07CE-390C82E65450" x="196px" y="47px" width="13px" height="5px" />
    <rect id="2082AF74-FC91-36C6-7DAC-AB55-6950AF333F16" x="211px" y="47px" width="24px" height="5px" />
    <rect id="A323A0E0-F3BC-1CB3-9430-6F10-12DC940A882A" x="107px" y="51px" width="23px" height="19px" />
    <rect id="5F11ABE8-90A9-34FC-FF10-EC29-DB198CDB0E3F" x="132px" y="51px" width="17px" height="19px" />
    <rect id="B3F6B670-AD3B-101B-119D-B347-0E4A1C3F6960" x="151px" y="51px" width="13px" height="5px" />
    <rect id="437A442A-2830-2DF2-FE55-4D20-5EF82996AFDA" x="166px" y="51px" width="13px" height="5px" />
    <rect id="7CE09B6D-42BF-956F-0530-12E8-5A0A0EFE761D" x="189px" y="54px" width="5px" height="16px" />
    <rect id="B44F10EC-ABF4-EDB5-AE03-37A3-84145CF7A414" x="196px" y="54px" width="13px" height="16px" />
    <rect id="4B45FE40-7ED7-AF3E-CACC-5A29-F544B2BDD1BE" x="211px" y="54px" width="6px" height="7px" />
    <rect id="80945845-B620-A164-E4A0-213E-D1DD401FDF4F" x="219px" y="54px" width="27px" height="16px" />
    <rect id="02DD999B-FE17-78CD-CA91-D0C1-8ABCC323D6A3" x="151px" y="58px" width="13px" height="12px" />
    <rect id="5C3E1747-3AC8-531C-680C-571E-1E3871850B6B" x="166px" y="58px" width="13px" height="12px" />
    <rect id="CA28256D-871C-2236-9238-EA33-861118BE1D6B" x="50px" y="59px" width="26px" height="11px" />
  </g>
</svg>
