<svg width="227px" height="227px" xmlns="http://www.w3.org/2000/svg">
  <g transform="translate(-10.5 77.5) rotate(45 124.0 36.0)">
    <rect id="F3B53020-5DC5-E048-F7CF-817D-131DCC4BA5E4" x="2px" y="2px" width="22px" height="6px" />
    <rect id="B20E2F56-FB0C-0595-07F6-4F45-EBD3105E73B3" x="26px" y="2px" width="15px" height="21px" />
    <rect id="57211139-774A-F908-3CF0-B715-8E87B3C015BB" x="43px" y="2px" width="4px" height="21px" />
    <rect id="32B28019-89DA-5E5D-43E4-6B45-EDD322484D7A" x="49px" y="2px" width="8px" height="21px" />
    <rect id="5CDECEE2-9807-83A4-C251-525F-7D65BA092196" x="59px" y="2px" width="19px" height="21px" />
    <rect id="F663C387-1FCC-9D82-5109-5981-2453D434FB16" x="80px" y="2px" width="19px" height="21px" />
    <rect id="C71CE6B8-DA6D-373F-D557-2892-656694EF5CCD" x="101px" y="2px" width="13px" height="21px" />
    <rect id="01916023-6C45-F4E4-7D11-937C-D9E6DCF0A56C" x="116px" y="2px" width="15px" height="21px" />
    <rect id="1C2FE773-D355-DCD6-32F3-0BA6-7B4E191A14F8" x="133px" y="2px" width="4px" height="14px" />
    <rect id="92B3E85F-3911-DFC1-DA40-D3D8-38EDEC408E0A" x="139px" y="2px" width="22px" height="14px" />
    <rect id="7C3782FF-7C08-065B-4F0F-968D-EC016A3EAD3E" x="163px" y="2px" width="13px" height="14px" />
    <rect id="DC0F1703-2869-3B09-B72D-A4BE-FB4692C039A2" x="178px" y="2px" width="7px" height="14px" />
    <rect id="6856153D-2D0C-624F-7ABB-4831-3FD0FCE89514" x="187px" y="2px" width="19px" height="14px" />
    <rect id="B3F43975-E2A4-3702-46A8-66A5-7BF4FFB03C9E" x="208px" y="2px" width="29px" height="14px" />
    <rect id="44F77474-1952-8892-BD64-16D4-DC3DB060CA28" x="239px" y="2px" width="7px" height="25px" />
    <rect id="C6A286D0-8697-78D7-16FA-114A-98C30236FA4B" x="2px" y="10px" width="22px" height="6px" />
    <rect id="40369CBB-9A13-82D1-5A11-942B-5D2DD9152C70" x="2px" y="18px" width="22px" height="16px" />
    <rect id="19C44DE7-4449-C0E1-799C-9E49-BED4699FB34B" x="133px" y="18px" width="4px" height="14px" />
    <rect id="2ECB1A55-BC84-5E84-F335-A13A-94ED49334766" x="139px" y="18px" width="7px" height="14px" />
    <rect id="102C06A0-77C8-0194-F912-3A40-8A3DC0219083" x="148px" y="18px" width="28px" height="14px" />
    <rect id="4EEE9545-B251-E4F6-6E4A-8C9B-8301501B0003" x="178px" y="18px" width="4px" height="14px" />
    <rect id="93AA14D5-6871-39FA-A614-66A6-FE82E442E14E" x="184px" y="18px" width="22px" height="14px" />
    <rect id="76A5CD2E-182C-2CC6-040C-F448-76312F570444" x="208px" y="18px" width="29px" height="9px" />
    <rect id="EFFC7620-9061-05E4-F481-6DE1-F3A84438A2A9" x="26px" y="25px" width="15px" height="9px" />
    <rect id="5EBE5A35-7ED0-BAF7-6973-9CFC-8C06280A9149" x="43px" y="25px" width="35px" height="9px" />
    <rect id="D3CECF90-3781-2644-534E-5263-773D81F3A8DB" x="80px" y="25px" width="7px" height="9px" />
    <rect id="D250ADC5-FA08-F3B1-95A0-6685-25D9961D44E0" x="89px" y="25px" width="10px" height="9px" />
    <rect id="44DF562A-24DA-EB00-174A-219F-135459CF346A" x="101px" y="25px" width="30px" height="9px" />
    <rect id="9409B7B9-35BC-B053-369E-15DC-72FB9D8585C4" x="208px" y="29px" width="29px" height="7px" />
    <rect id="558CC435-9804-C756-F3D9-CF11-E05F22297D8B" x="239px" y="29px" width="7px" height="41px" />
    <rect id="96534DD2-8AF0-4624-CACE-D86B-D008B308285E" x="133px" y="34px" width="13px" height="36px" />
    <rect id="C4D04721-D1E4-9146-8CED-67D2-C9EF46A81C26" x="148px" y="34px" width="34px" height="7px" />
    <rect id="F34A7B22-5D47-4220-BC66-CCF6-345D3585A0D6" x="184px" y="34px" width="22px" height="7px" />
    <rect id="2151A8BE-1EF9-E68C-2627-6D27-E7962DDBE0EC" x="2px" y="36px" width="39px" height="7px" />
    <rect id="BE8C1779-7EAA-37F7-F7E1-6B55-0459BFE7CB04" x="43px" y="36px" width="35px" height="7px" />
    <rect id="0F9A499B-53E2-09B3-BA2D-723F-EFA05D5E7FA9" x="80px" y="36px" width="7px" height="34px" />
    <rect id="579C9EE1-8FB1-C6A0-9ACA-71DF-1AED8EFD9FF1" x="89px" y="36px" width="10px" height="34px" />
    <rect id="AD83BC10-C105-DAB2-61F5-607C-1A6436A2FA6A" x="101px" y="36px" width="5px" height="19px" />
    <rect id="09738B96-C58D-91B1-FE61-3262-706CBC1C0A03" x="108px" y="36px" width="6px" height="4px" />
    <rect id="9728DAA0-F84E-757F-1A42-53CE-E952247149D6" x="116px" y="36px" width="15px" height="34px" />
    <rect id="9AB09C3B-68AF-6E59-39C1-C11B-9B8BFA613E2D" x="208px" y="38px" width="17px" height="5px" />
    <rect id="D53B2B0B-E6D7-3408-EF2D-1A80-8571C29B5DC5" x="227px" y="38px" width="10px" height="5px" />
    <rect id="02CB3FF3-BE1A-D45C-8941-82E1-348D6C6080CC" x="108px" y="42px" width="6px" height="13px" />
    <rect id="8F26FD39-A157-FBDB-CA8F-14BA-17514DE567EF" x="148px" y="43px" width="34px" height="6px" />
    <rect id="540C4D1C-F197-BCFB-B11E-4EFF-6FB6E7182FFC" x="184px" y="43px" width="22px" height="6px" />
    <rect id="DF63E49C-8AE2-9169-B6B3-22FB-CECB4ED1B367" x="2px" y="45px" width="17px" height="25px" />
    <rect id="A1DC7E23-BCEA-CE64-2943-294A-89176FB99864" x="21px" y="45px" width="20px" height="25px" />
    <rect id="640086A6-7E15-B1C8-F6D3-AFC0-C79725062C70" x="43px" y="45px" width="12px" height="25px" />
    <rect id="94E7D958-D444-5E06-D591-3652-ACC2D61172AE" x="57px" y="45px" width="21px" height="4px" />
    <rect id="3E1615FD-F73E-8637-6819-663D-6B712CB8DA50" x="208px" y="45px" width="17px" height="4px" />
    <rect id="9D3014DE-922F-8E1E-2FE9-7C4F-5995744FFAD0" x="227px" y="45px" width="10px" height="4px" />
    <rect id="DEC981FA-08D8-DCFE-0CE2-2A37-B2926FB61F5D" x="57px" y="51px" width="21px" height="19px" />
    <rect id="BDC6A683-BBC1-6B25-08B5-7A49-85993B9FAAD8" x="148px" y="51px" width="34px" height="19px" />
    <rect id="EB993ED5-56DC-CC4A-DEB9-F63A-F41DDE99CC96" x="184px" y="51px" width="22px" height="19px" />
    <rect id="FC4E8D1A-2B87-2247-0734-4849-69F269B1892E" x="208px" y="51px" width="11px" height="4px" />
    <rect id="D165973D-0A00-93E7-45CB-C826-895EA282AEFB" x="221px" y="51px" width="4px" height="4px" />
    <rect id="81A0CF9B-9F8E-3925-741E-F741-72D4319C5026" x="227px" y="51px" width="10px" height="4px" />
  </g>
</svg>
