<svg width="227px" height="227px" xmlns="http://www.w3.org/2000/svg">
  <g transform="translate(-10.5 77.5) rotate(45 124.0 36.0)">
    <rect id="2F8C5FBB-232F-BBDC-5128-C691-8A272645DEDF" x="2px" y="2px" width="37px" height="8px" />
    <rect id="625F4E0D-9DBA-ABDA-8ED9-8635-70D2A2E81D33" x="41px" y="2px" width="22px" height="8px" />
    <rect id="2B2A2403-C825-D7BE-5CFD-AE1A-4061AB35E3C3" x="65px" y="2px" width="38px" height="8px" />
    <rect id="1E2956DB-B659-4925-A668-BCBC-04BBDECB0439" x="105px" y="2px" width="30px" height="8px" />
    <rect id="23D0A36A-9931-454F-7A45-8F18-C2F6DDA746DB" x="137px" y="2px" width="38px" height="8px" />
    <rect id="2FC94F5C-B840-6251-0391-1128-05576A2E413F" x="177px" y="2px" width="46px" height="8px" />
    <rect id="E90DE385-F47D-8265-DFC1-A9D6-78120E3B9958" x="225px" y="2px" width="21px" height="18px" />
    <rect id="21DD011B-2F6B-3357-1D3B-29F5-E2D13F81E6C9" x="2px" y="12px" width="37px" height="12px" />
    <rect id="878CF676-3A6E-F4AC-4812-BF23-EA6441C87AD6" x="41px" y="12px" width="22px" height="24px" />
    <rect id="604FA9FF-C15C-FEF0-5CF8-C1D4-C899524C1083" x="65px" y="12px" width="10px" height="58px" />
    <rect id="884E9966-47AF-512C-0EAE-E26F-7CC12CFAD9DF" x="77px" y="12px" width="26px" height="18px" />
    <rect id="C21E96AA-34B4-07A4-720E-282E-B312CE8BC69B" x="105px" y="12px" width="30px" height="18px" />
    <rect id="6CC8CDDB-D5E8-D303-FC2A-8330-75FA680E1BBE" x="137px" y="12px" width="38px" height="10px" />
    <rect id="A839AA06-A745-0231-3F45-D428-36D2851EE1ED" x="177px" y="12px" width="31px" height="10px" />
    <rect id="90CBCC5A-A155-03B5-D31A-B670-C4394DAF8143" x="210px" y="12px" width="13px" height="30px" />
    <rect id="9F46FC49-EDD9-962A-9F02-89F1-EE56BF4AF89C" x="225px" y="22px" width="21px" height="20px" />
    <rect id="EB6EED8F-DB4B-DD63-E3B3-DB27-8801275463DF" x="137px" y="24px" width="17px" height="6px" />
    <rect id="0E8461E6-1142-B686-C166-5DF5-5F4272468334" x="156px" y="24px" width="19px" height="13px" />
    <rect id="90F0EA45-B430-76B1-CB67-E68F-66E9D47331FC" x="177px" y="24px" width="31px" height="13px" />
    <rect id="E8BE4349-F56A-7BB2-11E1-9BFF-16408EA23CDB" x="2px" y="26px" width="10px" height="44px" />
    <rect id="1A0DC7FC-846C-A10A-A0C2-E5DF-4C3BE3AF023B" x="14px" y="26px" width="10px" height="44px" />
    <rect id="E40E0660-3185-DF59-A0E6-CFDD-BACE5E3CE2E6" x="26px" y="26px" width="13px" height="20px" />
    <rect id="C8FB6373-4759-BA6A-4D61-ACBE-0F2A98D742C8" x="77px" y="32px" width="26px" height="38px" />
    <rect id="D2B7CFB3-AA03-E230-0447-B4E5-65C13FDC4D67" x="105px" y="32px" width="30px" height="38px" />
    <rect id="0601BC1A-015B-C01C-8229-75D5-AFBA803DA549" x="137px" y="32px" width="17px" height="20px" />
    <rect id="B938A8AB-EA69-90A5-6B02-47EB-50C6D42B0117" x="41px" y="38px" width="22px" height="32px" />
    <rect id="6FF8F9E9-98BD-13D0-CE4F-14A1-7B7B6EFE659F" x="156px" y="39px" width="19px" height="13px" />
    <rect id="3BB6B5A9-2A47-3D00-2360-F9BE-F3B9288CF694" x="177px" y="39px" width="31px" height="13px" />
    <rect id="7C62F928-E7A9-A6C9-DB7A-8F5F-2CB62F3B2B20" x="210px" y="44px" width="36px" height="8px" />
    <rect id="B3AF5E4C-6857-9A37-A60D-B010-950FB5C61E44" x="26px" y="48px" width="13px" height="22px" />
    <rect id="7BB16703-2D03-BFAA-1C02-5A2C-F2BF8A63E5AB" x="137px" y="54px" width="38px" height="16px" />
    <rect id="F14D9E02-FC92-123E-9BD8-33A8-338C899C8E3D" x="177px" y="54px" width="31px" height="6px" />
    <rect id="4B7E03D3-B1CC-6010-BF00-BC84-077F8E03D68D" x="210px" y="54px" width="36px" height="16px" />
  </g>
</svg>
