<svg width="227px" height="227px" xmlns="http://www.w3.org/2000/svg">
  <g transform="translate(-10.5 77.5) rotate(45 124.0 36.0)">
    <rect id="3EE335C5-B787-5E50-6F3C-3D1E-57533F90694F" x="2px" y="2px" width="31px" height="16px" />
    <rect id="2ADE4E14-CE4A-2344-D116-59DB-CA945233640C" x="35px" y="2px" width="55px" height="16px" />
    <rect id="D0DE20B6-D57C-40C4-AF34-D629-8F778C6B188D" x="92px" y="2px" width="15px" height="16px" />
    <rect id="57F079AA-143C-16EE-3288-B241-6EF843DF87F1" x="109px" y="2px" width="9px" height="7px" />
    <rect id="EA0B818C-6A40-C47D-AD1B-F3F0-35501A92C3C3" x="120px" y="2px" width="41px" height="17px" />
    <rect id="DA227299-2C51-EB34-98F6-7568-74B6EE5A1749" x="163px" y="2px" width="46px" height="17px" />
    <rect id="E7346F65-EEB1-69FA-15EB-6B46-C685F104D535" x="211px" y="2px" width="35px" height="17px" />
    <rect id="C2FFD7D2-6A43-A880-089D-9343-92DE6A9DBE93" x="109px" y="11px" width="9px" height="7px" />
    <rect id="909E8C3A-38E2-FB89-E23F-6D44-AB2956506DA5" x="2px" y="20px" width="31px" height="22px" />
    <rect id="2E54C335-8A4E-7462-FD4C-3D82-398227059731" x="35px" y="20px" width="19px" height="22px" />
    <rect id="13B197F0-4390-0D21-6DEB-DF35-73B9351D7F61" x="56px" y="20px" width="34px" height="22px" />
    <rect id="98D19C7F-C5AB-6D1C-F9C9-CE2E-0ABCAE4A318D" x="92px" y="20px" width="15px" height="22px" />
    <rect id="617F573B-6D8C-F072-9588-8351-2D73F62E72EE" x="109px" y="20px" width="9px" height="22px" />
    <rect id="F861E087-F5FC-3CED-25F6-430E-09519FA586AC" x="120px" y="21px" width="6px" height="21px" />
    <rect id="3867E060-112C-8DAE-54E8-EE60-16FA28646066" x="128px" y="21px" width="33px" height="21px" />
    <rect id="74CC78D6-5B13-C91F-574A-1603-74EBE3868DBC" x="163px" y="21px" width="24px" height="21px" />
    <rect id="C4972464-9115-86E9-D651-461A-2B2FC4B1E92D" x="189px" y="21px" width="20px" height="21px" />
    <rect id="5D6DCAF1-736C-BA9D-5B0A-E74D-410CF6F988A0" x="211px" y="21px" width="35px" height="21px" />
    <rect id="E2912BB4-3F6B-4135-F65A-EA92-C2235BA07847" x="2px" y="44px" width="8px" height="26px" />
    <rect id="64C86100-0A4F-FF72-EA69-E869-BC6E91ACFB0B" x="12px" y="44px" width="21px" height="26px" />
    <rect id="22A189A1-D8A1-7373-2B7F-9BC3-B1E2F39D242C" x="35px" y="44px" width="8px" height="26px" />
    <rect id="4CBAB9AF-1AD1-82D1-F765-3440-F445FDE50951" x="45px" y="44px" width="9px" height="26px" />
    <rect id="0F87C27F-63EA-9B79-07C6-4D74-DABE679A66E1" x="56px" y="44px" width="8px" height="26px" />
    <rect id="8246E764-0828-26A5-3597-D820-C660E88A2F8D" x="66px" y="44px" width="5px" height="26px" />
    <rect id="AD1DFDBA-4A28-7D38-82F3-CFDB-4A2666BB9E6C" x="73px" y="44px" width="17px" height="26px" />
    <rect id="7FD01030-AA92-5C97-1BFB-F506-856429795AD6" x="92px" y="44px" width="15px" height="4px" />
    <rect id="0DA16C95-1516-1B6D-47F4-A859-258B11F4336B" x="109px" y="44px" width="9px" height="26px" />
    <rect id="67A6F4C5-748D-C019-D9DC-489F-6635CBF7ECAD" x="120px" y="44px" width="6px" height="26px" />
    <rect id="38369CEB-D789-3944-31A4-ED0B-68D7DC8CCF92" x="128px" y="44px" width="13px" height="8px" />
    <rect id="19073216-6E7E-CCDC-C2D1-5333-2C801887EEAB" x="143px" y="44px" width="18px" height="26px" />
    <rect id="22827507-A002-1D98-AA38-B732-B59E090AFA5E" x="163px" y="44px" width="24px" height="9px" />
    <rect id="3375FF39-E425-0ACC-BD4A-F6CE-18FB85E34727" x="189px" y="44px" width="20px" height="26px" />
    <rect id="F23C1C69-B32D-0945-3B2C-0C1D-6306AB03A0D9" x="211px" y="44px" width="35px" height="26px" />
    <rect id="214E7DFC-23EB-8A9E-3083-1F1A-A11D5ED2CF7F" x="92px" y="50px" width="15px" height="20px" />
  </g>
</svg>
