<svg width="227px" height="227px" xmlns="http://www.w3.org/2000/svg">
  <g transform="translate(-10.5 77.5) rotate(45 124.0 36.0)">
    <rect id="46219F17-EC27-D2CD-675E-AA42-78BAA6AE0CD3" x="2px" y="2px" width="28px" height="6px" />
    <rect id="62558C4C-242D-88D6-B637-0E38-BEA4033E2CCC" x="32px" y="2px" width="29px" height="13px" />
    <rect id="61769794-464D-239E-9931-846E-CA1AB9DFBA8E" x="63px" y="2px" width="29px" height="13px" />
    <rect id="BFF4C2EF-C26D-DC88-E69C-8B69-3E5451B4EBD0" x="94px" y="2px" width="5px" height="7px" />
    <rect id="AA875147-9CC8-14DC-3CD5-2888-0F15A9C0B215" x="101px" y="2px" width="41px" height="8px" />
    <rect id="840D4022-149D-0418-9877-C024-BC468278C107" x="144px" y="2px" width="24px" height="8px" />
    <rect id="39B10EC9-024D-0052-E3DC-B4DB-BACFB3F91F2B" x="170px" y="2px" width="10px" height="42px" />
    <rect id="2CE941B0-86CD-8EBE-129D-A0E5-E8154CA4954B" x="182px" y="2px" width="10px" height="9px" />
    <rect id="52712591-E010-562B-EE13-F5F3-2734A0FB79FE" x="194px" y="2px" width="52px" height="9px" />
    <rect id="5BF623FD-D5A6-7096-EF6E-6231-BAD682C9E8B0" x="2px" y="10px" width="28px" height="13px" />
    <rect id="67A83FD0-6DFA-72AA-184E-2360-7ECA74539025" x="94px" y="11px" width="18px" height="11px" />
    <rect id="1A318666-CFEB-414F-7784-1DA5-C1A9A740F7DB" x="114px" y="12px" width="54px" height="10px" />
    <rect id="C831BD2F-AF10-5C75-B522-8828-2126812BF13F" x="182px" y="13px" width="10px" height="31px" />
    <rect id="00D3C30B-9112-D3BD-3C34-79B3-E9A19191E118" x="194px" y="13px" width="8px" height="31px" />
    <rect id="E170B069-6FE0-31F0-4696-F37F-2D310C7234EA" x="204px" y="13px" width="16px" height="31px" />
    <rect id="B2769821-F55D-271B-4460-6D12-FB271C0764B7" x="222px" y="13px" width="14px" height="31px" />
    <rect id="578434B1-12F7-D39C-8914-4CC9-8872B014D521" x="238px" y="13px" width="8px" height="4px" />
    <rect id="F2902979-2BE7-F69D-A399-C03E-7CDFC5978567" x="32px" y="17px" width="9px" height="53px" />
    <rect id="F8361B0A-9D70-B023-BBDF-AD70-D4D244785A35" x="43px" y="17px" width="18px" height="25px" />
    <rect id="2F62BEFE-D517-5064-BC60-ED62-BA4AB695162C" x="63px" y="17px" width="29px" height="25px" />
    <rect id="993E3EF8-F7B1-9017-10DC-A01D-00861067AD57" x="238px" y="19px" width="8px" height="4px" />
    <rect id="50F91CED-355B-62F7-5BF9-3CCB-416A9306BE97" x="94px" y="24px" width="18px" height="18px" />
    <rect id="FEC3FBE2-375D-33B4-3A81-8064-5EBBF5974E71" x="114px" y="24px" width="4px" height="18px" />
    <rect id="3CC058F4-3063-2955-8100-9877-BC60C6F397A7" x="120px" y="24px" width="21px" height="18px" />
    <rect id="D033D205-2AC8-7BB8-0312-3E63-DF3C445B44F4" x="143px" y="24px" width="25px" height="18px" />
    <rect id="4BE6C5EA-AADC-337A-6257-C977-4041B310AD47" x="2px" y="25px" width="28px" height="4px" />
    <rect id="9D901B26-1863-5659-24D0-43D0-BB1B8809C80F" x="238px" y="25px" width="8px" height="45px" />
    <rect id="C9A3DCD3-5493-4B84-C30C-7E83-BB00C1CA6174" x="2px" y="31px" width="28px" height="14px" />
    <rect id="74105DEB-FE20-C4FC-F77D-F59C-074B40EA28B4" x="43px" y="44px" width="18px" height="26px" />
    <rect id="2E7F94C3-360C-EB19-E9B2-336D-5C8B80A80DAF" x="63px" y="44px" width="29px" height="26px" />
    <rect id="00842264-D249-75CA-45B5-7881-5E58DBFD9D1B" x="94px" y="44px" width="18px" height="26px" />
    <rect id="303FABC9-E47D-1FCE-476C-7991-9E33FDE1AC2E" x="114px" y="44px" width="4px" height="26px" />
    <rect id="095739C8-D176-F8A5-3852-1BBF-FB0D44E2B6B5" x="120px" y="44px" width="21px" height="26px" />
    <rect id="159F67AF-7CCC-3C61-095E-B2A6-9674D61859FB" x="143px" y="44px" width="5px" height="26px" />
    <rect id="18058B38-E6ED-2A48-2A7C-6655-B06BBFE7FB9E" x="150px" y="44px" width="18px" height="11px" />
    <rect id="C52353B1-3208-AD21-EFF5-3B7A-482C6C45AAFA" x="170px" y="46px" width="32px" height="24px" />
    <rect id="AFCB9251-2280-4E0C-F39D-1C6F-058B00305213" x="204px" y="46px" width="16px" height="24px" />
    <rect id="D8DEAC4D-3EDE-E8DF-A403-63B7-8615107310DD" x="222px" y="46px" width="14px" height="8px" />
    <rect id="27F54727-4E37-D404-4846-C456-0A120FDAC56E" x="2px" y="47px" width="4px" height="23px" />
    <rect id="8577FEEC-7FE2-A038-489A-5C98-C45AFD23B59F" x="8px" y="47px" width="22px" height="23px" />
    <rect id="50E41543-2CD5-880D-83A5-A6B9-BB54E9D3F2C9" x="222px" y="56px" width="6px" height="4px" />
    <rect id="92C5AA2A-CE86-8934-E6D9-1C7A-25680CE8B9B0" x="230px" y="56px" width="6px" height="14px" />
  </g>
</svg>
