<svg width="182px" height="182px" xmlns="http://www.w3.org/2000/svg">
  <g transform="translate(27.0 27.0) rotate(45 64.0 64.0)">
    <svg x="4" y="4">
      <rect id="0" x="2px" y="2px" width="6px" height="7px" />
      <rect id="1" x="10px" y="2px" width="21px" height="7px" />
      <rect id="2" x="2px" y="11px" width="16px" height="18px" />
      <rect id="3" x="20px" y="11px" width="11px" height="4px" />
      <rect id="4" x="20px" y="17px" width="11px" height="12px" />
    </svg>
    <svg x="37" y="4">
      <rect id="0" x="2px" y="2px" width="4px" height="19px" />
      <rect id="1" x="8px" y="2px" width="7px" height="19px" />
      <rect id="2" x="17px" y="2px" width="10px" height="19px" />
      <rect id="3" x="29px" y="2px" width="27px" height="19px" />
      <rect id="4" x="58px" y="2px" width="27px" height="19px" />
    </svg>
    <svg x="37" y="27">
      <rect id="0" x="2px" y="2px" width="17px" height="14px" />
      <rect id="1" x="2px" y="18px" width="17px" height="22px" />
      <rect id="2" x="2px" y="42px" width="17px" height="22px" />
      <rect id="3" x="2px" y="66px" width="17px" height="12px" />
      <rect id="4" x="2px" y="80px" width="17px" height="15px" />
    </svg>
    <svg x="58" y="27">
      <rect id="0" x="2px" y="2px" width="15px" height="19px" />
      <rect id="1" x="19px" y="2px" width="5px" height="4px" />
      <rect id="2" x="26px" y="2px" width="16px" height="19px" />
      <rect id="3" x="44px" y="2px" width="20px" height="19px" />
      <rect id="4" x="19px" y="8px" width="5px" height="13px" />
    </svg>
    <svg x="4" y="35">
      <rect id="0" x="2px" y="2px" width="29px" height="13px" />
      <rect id="1" x="2px" y="17px" width="29px" height="8px" />
      <rect id="2" x="2px" y="27px" width="29px" height="19px" />
      <rect id="3" x="2px" y="48px" width="10px" height="39px" />
      <rect id="4" x="14px" y="48px" width="17px" height="39px" />
    </svg>
    <svg x="58" y="50">
      <rect id="0" x="2px" y="2px" width="16px" height="28px" />
      <rect id="1" x="20px" y="2px" width="4px" height="11px" />
      <rect id="2" x="26px" y="2px" width="38px" height="11px" />
      <rect id="3" x="20px" y="15px" width="4px" height="15px" />
      <rect id="4" x="26px" y="15px" width="38px" height="15px" />
    </svg>
    <svg x="58" y="82">
      <rect id="0" x="2px" y="2px" width="12px" height="38px" />
      <rect id="1" x="16px" y="2px" width="48px" height="9px" />
      <rect id="2" x="16px" y="13px" width="8px" height="27px" />
      <rect id="3" x="26px" y="13px" width="38px" height="14px" />
      <rect id="4" x="26px" y="29px" width="38px" height="11px" />
    </svg>
  </g>
</svg>
