<svg width="2898px" height="2898px" xmlns="http://www.w3.org/2000/svg">
  <g transform="translate(425.0 425.0) rotate(45 1024.0 1024.0)">
    <svg id="mediamaking" x="60" y="60" xmlns="http://www.w3.org/2000/svg">
      <rect id="mcg-youth-and-arts-the-wide-world-of-photo" x="1048px" y="53px" width="59px" height="240px" />
      <rect id="pf-and-pca-filmmakers-youth-media-foundations-of-photography" x="609px" y="123px" width="70px" height="46px" />
      <rect id="diy-org-reenact-a-scene" x="806px" y="89px" width="115px" height="204px" />
      <rect id="carnegie-science-center-i5-video-competition" x="72px" y="86px" width="51px" height="207px" />
      <rect id="starz-the-chair" x="308px" y="6px" width="56px" height="287px" />
      <rect id="jenesis-magazine-online-youth-lifestyle-publication-based-in-pittsburgh" x="218px" y="187px" width="84px" height="106px" />
      <rect id="wyep-rock-radio-camp" x="1048px" y="6px" width="206px" height="41px" />
      <rect id="mcg-youth-and-arts-electric-avenue" x="1113px" y="53px" width="76px" height="240px" />
      <rect id="interview-magazine-andy-warhol-magazine--interview-" x="515px" y="123px" width="88px" height="46px" />
      <rect id="diy-org-build-a-photo-studio" x="515px" y="89px" width="164px" height="28px" />
      <rect id="pf-and-pca-filmmakers-youth-media-graphic-design" x="927px" y="6px" width="115px" height="77px" />
      <rect id="madmagz-make-your-own-magazine" x="973px" y="89px" width="69px" height="81px" />
      <rect id="pf-and-pca-filmmakers-youth-media-cryptozoology" x="609px" y="175px" width="70px" height="118px" />
      <rect id="white-house-the-white-house--students-film-festival" x="129px" y="86px" width="173px" height="95px" />
      <rect id="carnegie-science-center-digital-video-smash-jam-two-day-workshop" x="515px" y="6px" width="164px" height="77px" />
      <rect id="wyep-radio-tour" x="1195px" y="53px" width="59px" height="118px" />
      <rect id="labs-at-carnegie-library-of-pittsburgh-clp-teens-tumblr" x="427px" y="89px" width="82px" height="204px" />
      <rect id="pf-and-pca-filmmakers-youth-media-directors-workshop" x="927px" y="89px" width="40px" height="204px" />
      <rect id="mcg-youth-and-arts-photography" x="685px" y="6px" width="115px" height="77px" />
      <rect id="the-criterion-collection-criterion-collection-top-10s" x="6px" y="6px" width="145px" height="74px" />
      <rect id="diy-org-create-a-book-trailer" x="973px" y="176px" width="69px" height="117px" />
      <rect id="pf-and-pca-filmmakers-youth-media-photography-at-pf" x="806px" y="6px" width="115px" height="77px" />
      <rect id="steeltown-entertainment-youth-and-media" x="1195px" y="177px" width="59px" height="116px" />
      <rect id="pf-and-pca-filmmakers-youth-media-foundations-of-filmmaking" x="370px" y="89px" width="51px" height="204px" />
      <rect id="vimeo-directing-101" x="685px" y="89px" width="115px" height="204px" />
      <rect id="diy-org-film-a-spoof-video" x="129px" y="187px" width="83px" height="106px" />
      <rect id="diy-org-make-trick-photography-" x="515px" y="175px" width="88px" height="118px" />
      <rect id="pf-and-pca-filmmakers-youth-media-handmade-filmmaking-at-pf" x="6px" y="86px" width="60px" height="207px" />
      <rect id="labs-at-carnegie-library-of-pittsburgh-open-lab" x="370px" y="6px" width="139px" height="77px" />
      <rect id="teen-ink-teen-ink-video" x="157px" y="6px" width="145px" height="74px" />
    </svg>

    <svg id="building-making" x="1374" y="60" xmlns="http://www.w3.org/2000/svg">
      <rect id="built-by-kids-activities" x="284px" y="323px" width="62px" height="57px" />
      <rect id="diy-minecrafter" x="284px" y="6px" width="62px" height="192px" />
      <rect id="maker-media-make-magazine" x="400px" y="45px" width="71px" height="153px" />
      <rect id="assemble-m3---materials-media-and-me" x="161px" y="335px" width="117px" height="122px" />
      <rect id="pbs-kids-pbs-design-squad---watch" x="6px" y="118px" width="149px" height="46px" />
      <rect id="maker-faire--visit-maker-faire-pittsburgh" x="161px" y="204px" width="117px" height="29px" />
      <rect id="society-for-contemporary-craft-drop-in-studio" x="6px" y="49px" width="149px" height="63px" />
      <rect id="diy-sketch-a-real-building-" x="6px" y="239px" width="149px" height="29px" />
      <rect id="carnegie-science-center-fab-lab" x="477px" y="45px" width="57px" height="153px" />
      <rect id="gtech-strategies-412-build" x="477px" y="386px" width="25px" height="71px" />
      <rect id="northern-tier-regional-library-cube-head-superheroes" x="284px" y="386px" width="62px" height="71px" />
      <rect id="pittsburgh-center-for-creative-reuse-the-remaker-playshop---sew-mend-make" x="540px" y="125px" width="74px" height="129px" />
      <rect id="lego-lego-sets" x="6px" y="170px" width="149px" height="63px" />
      <rect id="assemble-saturday-crafternoons-" x="284px" y="204px" width="62px" height="113px" />
      <rect id="assemble-learning-parties" x="6px" y="335px" width="149px" height="122px" />
      <rect id="hack-pittsburgh-visit-hackpittsburgh" x="477px" y="204px" width="57px" height="113px" />
      <rect id="assemble-youth-maker-night" x="161px" y="239px" width="117px" height="29px" />
      <rect id="assemble-unblurred" x="508px" y="386px" width="26px" height="71px" />
      <rect id="millvale-community-library-maker-thursdays" x="477px" y="323px" width="57px" height="57px" />
      <rect id="ted-talks-life-lessons-through-tinkering" x="352px" y="386px" width="119px" height="71px" />
      <rect id="assemble-assemble-afterschool" x="540px" y="260px" width="74px" height="197px" />
      <rect id="childrens-museum-of-pittsburgh-the-makeshop-show" x="352px" y="204px" width="119px" height="113px" />
      <rect id="slamacow-minecraft-leaking-into-the-real-world---minecraft-animation" x="352px" y="323px" width="119px" height="57px" />
      <rect id="super-awesome-sylvia-show-super-awesome-sylvia---episodes" x="161px" y="274px" width="117px" height="55px" />
      <rect id="diy-lego-master" x="216px" y="6px" width="62px" height="192px" />
      <rect id="diy-make-a-rube-goldberg-machine-" x="6px" y="6px" width="149px" height="37px" />
      <rect id="assemble-teens-as-teachers" x="540px" y="6px" width="74px" height="113px" />
      <rect id="childrens-museum-of-pittsburgh-makeshop" x="352px" y="6px" width="42px" height="192px" />
      <rect id="pbs-kids-pbs-design-squad---build" x="161px" y="6px" width="49px" height="192px" />
      <rect id="instructables-build-something" x="6px" y="274px" width="149px" height="55px" />
      <rect id="tech-shop-visit-tech-shop" x="400px" y="6px" width="134px" height="33px" />
    </svg>

    <svg id="art-design" x="60" y="413" xmlns="http://www.w3.org/2000/svg">
      <rect id="mattress-factory-community-art-lab" x="365px" y="530px" width="128px" height="30px" />
      <rect id="evan-mirapaul-la-hutte-royal" x="125px" y="126px" width="33px" height="84px" />
      <rect id="mcg-youth-and-arts-electric-avenue" x="245px" y="633px" width="130px" height="38px" />
      <rect id="society-for-contemporary-craft-visit-scc-store" x="110px" y="566px" width="129px" height="61px" />
      <rect id="pittsburgh-filmmaker-and-center-for-the-arts-anime" x="381px" y="677px" width="112px" height="25px" />
      <rect id="tek-start-the-beauty-of-stem-makers-institute" x="6px" y="276px" width="98px" height="39px" />
      <rect id="carnegie-museums-of-art-and-natural-history-city-explorers---urban-designers" x="164px" y="320px" width="154px" height="82px" />
      <rect id="carnegie-museums-of-art-and-natural-history-fiber-art" x="6px" y="6px" width="113px" height="54px" />
      <rect id="society-for-contemporary-craft-contemporary-craft-blog" x="245px" y="677px" width="130px" height="25px" />
      <rect id="the-andy-warhol-museum-youth-open-studio" x="365px" y="408px" width="128px" height="84px" />
      <rect id="pittsburgh-filmmaker-and-center-for-the-arts-raku" x="324px" y="216px" width="169px" height="55px" />
      <rect id="carnegie-museums-of-art-and-natural-history-experimental-drawing-and-painting" x="110px" y="408px" width="48px" height="84px" />
      <rect id="diy-sketch-a-real-building-" x="381px" y="633px" width="112px" height="38px" />
      <rect id="pittsburgh-filmmaker-and-center-for-the-arts-graphic-design" x="287px" y="708px" width="88px" height="73px" />
      <rect id="carnegie-museums-of-art-and-natural-history-sketchbook" x="365px" y="320px" width="128px" height="48px" />
      <rect id="labs-at-carnegie-library-of-pittsburgh-the-labsy-awards" x="429px" y="126px" width="64px" height="84px" />
      <rect id="mattress-factory-summer-art-cooperative" x="125px" y="6px" width="193px" height="54px" />
      <rect id="pittsburgh-center-for-creative-reuse-the-remaker-playshop---sew-mend-make" x="164px" y="126px" width="154px" height="84px" />
      <rect id="carnegie-museums-of-art--interact" x="125px" y="66px" width="193px" height="54px" />
      <rect id="deviant-art-deviantart" x="324px" y="126px" width="99px" height="84px" />
      <rect id="carnegie-museums-of-art-and-natural-history-youth-museum-institute---exhibit-design-lab" x="324px" y="66px" width="169px" height="54px" />
      <rect id="mcg-youth-and-arts-print-draw-paint" x="164px" y="408px" width="75px" height="84px" />
      <rect id="mcg-youth-and-arts-ceramics-sets" x="6px" y="437px" width="98px" height="87px" />
      <rect id="pittsburgh-filmmaker-and-center-for-the-arts-high-fire-ceramics" x="110px" y="633px" width="129px" height="38px" />
      <rect id="design-boom-design-boom" x="6px" y="530px" width="98px" height="30px" />
      <rect id="carnegie-museums-of-art-and-natural-history-you-are-here---pittsburgh-placemaking" x="245px" y="530px" width="114px" height="30px" />
      <rect id="open-ideo-adding-visual-goodness-to-your-ideas-" x="245px" y="408px" width="114px" height="84px" />
      <rect id="the-andy-warhol-museum-vertical-silkscreen-printing-with-stefan-hoffmann" x="245px" y="498px" width="114px" height="26px" />
      <rect id="labs-at-carnegie-library-of-pittsburgh-open-lab" x="110px" y="498px" width="129px" height="26px" />
      <rect id="pittsburgh-filmmaker-and-center-for-the-arts-creature-design-and-mask-making" x="6px" y="66px" width="113px" height="54px" />
      <rect id="mcg-youth-and-arts-pillows-galore" x="365px" y="374px" width="128px" height="28px" />
      <rect id="pittsburgh-filmmaker-and-center-for-the-arts-stained-glass" x="365px" y="498px" width="128px" height="26px" />
      <rect id="food-revolution-pittsburgh-cooking-club-at-harvest-and-create" x="6px" y="633px" width="98px" height="148px" />
      <rect id="mcg-youth-and-arts-digital-expressions" x="164px" y="216px" width="154px" height="31px" />
      <rect id="labs-at-carnegie-library-of-pittsburgh-fashion-design-workshops" x="110px" y="276px" width="48px" height="126px" />
      <rect id="the-andy-warhol-museum-andy-warhol---pop-portraits-and-selfies" x="245px" y="566px" width="248px" height="61px" />
      <rect id="society-for-contemporary-craft-drop-in-studio" x="110px" y="530px" width="129px" height="30px" />
      <rect id="mcg-youth-and-arts-the-wide-world-of-photo" x="381px" y="708px" width="112px" height="73px" />
      <rect id="moma--moma-teens-online" x="110px" y="677px" width="129px" height="104px" />
      <rect id="pittsburgh-filmmaker-and-center-for-the-arts-drawing" x="324px" y="320px" width="35px" height="82px" />
      <rect id="pittsburgh-filmmaker-and-center-for-the-arts-the-shop" x="6px" y="216px" width="152px" height="54px" />
      <rect id="diy-hack-a-t-shirt-" x="324px" y="277px" width="169px" height="37px" />
      <rect id="the-andy-warhol-museum-online-weeeknd-factory" x="245px" y="708px" width="36px" height="73px" />
      <rect id="carnegie-museums-of-art-and-natural-history-dream-house---sketch-to-structure" x="6px" y="566px" width="98px" height="61px" />
      <rect id="tech-shop-steam003---textile-printing-and-sewing-" x="6px" y="321px" width="98px" height="110px" />
      <rect id="pittsburgh-filmmaker-and-center-for-the-arts-manipulating-metals" x="6px" y="126px" width="113px" height="84px" />
      <rect id="colossal-colossal" x="324px" y="6px" width="169px" height="54px" />
      <rect id="carnegie-museums-of-art-and-natural-history-drawing-people" x="164px" y="253px" width="154px" height="61px" />
    </svg>

    <svg id="coding-gaming" x="613" y="413" xmlns="http://www.w3.org/2000/svg">
      <rect id="id-tech-adventures-in-minecraft-game-design" x="519px" y="732px" width="89px" height="49px" />
      <rect id="digital-media-academy-online-fundamentals-of-programming" x="6px" y="628px" width="76px" height="38px" />
      <rect id="diyorg-minecrafter" x="6px" y="236px" width="141px" height="83px" />
      <rect id="carnegie-science-center-click---spy-school" x="403px" y="398px" width="110px" height="56px" />
      <rect id="carnegie-science-center--click---spy-mission" x="519px" y="318px" width="182px" height="74px" />
      <rect id="w3-schools-html5-tutorial" x="519px" y="460px" width="182px" height="47px" />
      <rect id="appshed-academy" x="6px" y="139px" width="141px" height="56px" />
      <rect id="girl-develop-it-introduction-to-git-and-github" x="88px" y="546px" width="224px" height="76px" />
      <rect id="the-jerome-bettis-bus-stops-here-foundation-the-cyber-bus-computer-engineering-program" x="153px" y="460px" width="159px" height="31px" />
      <rect id="codeorg-code-combat" x="519px" y="628px" width="89px" height="46px" />
      <rect id="e-line-media-gamestar-mechanic" x="519px" y="261px" width="63px" height="51px" />
      <rect id="girl-develop-it-web-accessibility" x="519px" y="6px" width="182px" height="43px" />
      <rect id="institute-of-play-through-the-arcade" x="403px" y="261px" width="110px" height="51px" />
      <rect id="diyorg-make-a-board-game" x="337px" y="121px" width="176px" height="43px" />
      <rect id="gamesalad-game-salad" x="6px" y="50px" width="141px" height="83px" />
      <rect id="global-game-jam-2015-global-game-jam-games" x="153px" y="6px" width="52px" height="221px" />
      <rect id="id-tech-mobile-game-design-for-iphone-and-android" x="356px" y="287px" width="41px" height="167px" />
      <rect id="instructables-create-tumblr-account" x="6px" y="405px" width="141px" height="86px" />
      <rect id="grow-a-generation-mobile-app-development" x="218px" y="680px" width="27px" height="101px" />
      <rect id="stem-advanced-technologies-for-kids-mobile-app-design" x="6px" y="672px" width="76px" height="51px" />
      <rect id="webmaker-tools-appmaker" x="519px" y="680px" width="89px" height="46px" />
      <rect id="webmaker-training-building-on-the-web" x="579px" y="55px" width="122px" height="60px" />
      <rect id="brain-pop-digital-etiquette" x="257px" y="233px" width="140px" height="48px" />
      <rect id="codeorg-studio-activities" x="318px" y="628px" width="195px" height="46px" />
      <rect id="lifelong-kindergarten-group-at-the-mit-media-lab-scratch" x="211px" y="233px" width="40px" height="221px" />
      <rect id="school-of-open-get-to-know-the-hackasaurus-xray-goggles" x="519px" y="191px" width="182px" height="64px" />
      <rect id="codeorg-make-a-flappy-game" x="519px" y="513px" width="182px" height="53px" />
      <rect id="made-w-code-watch-the-film" x="519px" y="55px" width="54px" height="60px" />
      <rect id="codecademy-make-an-interactive-website" x="88px" y="497px" width="224px" height="43px" />
      <rect id="id-tech-java-programming" x="153px" y="233px" width="52px" height="221px" />
      <rect id="microsoft-virtual-academy-hour-of-code-event-training" x="257px" y="121px" width="74px" height="43px" />
      <rect id="assemble-make-it" x="88px" y="680px" width="37px" height="101px" />
      <rect id="tumblr-theme-garden" x="403px" y="318px" width="110px" height="74px" />
      <rect id="tumblr-how-to-create-a-custom-html-theme" x="6px" y="497px" width="76px" height="43px" />
      <rect id="codecademy-make-a-website" x="6px" y="546px" width="76px" height="76px" />
      <rect id="webmaker-tools-thimble" x="6px" y="325px" width="141px" height="74px" />
      <rect id="girl-develop-it-html-intro" x="451px" y="6px" width="62px" height="109px" />
      <rect id="codecademy-python" x="519px" y="572px" width="182px" height="50px" />
      <rect id="women-at-scs-school-of-computer-science---carnegie-mellon-university-creative-tech-nights" x="88px" y="628px" width="224px" height="46px" />
      <rect id="computer-science-education-week-thinkersmith-unplugged-hour-of-code-activity" x="614px" y="628px" width="87px" height="153px" />
      <rect id="girl-develop-it-introduction-to-web-concepts" x="318px" y="680px" width="195px" height="46px" />
      <rect id="p2pu-webmaking-101" x="131px" y="680px" width="81px" height="101px" />
      <rect id="schell-games-gamesprout" x="6px" y="729px" width="76px" height="52px" />
      <rect id="institute-of-play-gamekit-challenge-pack---the-basics" x="588px" y="261px" width="113px" height="51px" />
      <rect id="diyorg-design-a-body-game" x="6px" y="6px" width="141px" height="38px" />
      <rect id="codeorg-20-hour-intro-course" x="318px" y="572px" width="195px" height="50px" />
      <rect id="stem-advanced-technologies-for-kids-video-game-design" x="519px" y="121px" width="182px" height="64px" />
      <rect id="brain-pop-digital-etiquette-quiz" x="257px" y="287px" width="55px" height="167px" />
      <rect id="carnegie-mellon-university-school-of-computer-science-leap-at-cmu" x="403px" y="170px" width="110px" height="85px" />
      <rect id="girl-develop-it-intermediate-html-and-css" x="318px" y="513px" width="195px" height="53px" />
      <rect id="cs2n-rumbleblocks" x="584px" y="398px" width="117px" height="56px" />
      <rect id="webmaker-training-html-basics" x="251px" y="732px" width="262px" height="49px" />
      <rect id="diyorg-gather-website-inspiration" x="251px" y="680px" width="61px" height="46px" />
      <rect id="id-tech-game-programming-for-apple-ios-and-android-with-unity" x="318px" y="287px" width="32px" height="167px" />
      <rect id="mozilla-webmaker-x-ray-goggles" x="337px" y="6px" width="108px" height="109px" />
      <rect id="diyorg-make-a-pen-and-paper-game" x="211px" y="6px" width="40px" height="221px" />
      <rect id="mozilla-webmaker-make-a-meme" x="318px" y="460px" width="195px" height="47px" />
      <rect id="remake-learning-digital-learning-tools" x="257px" y="6px" width="74px" height="109px" />
      <rect id="neighborhood-learning-alliance-tech-warriors-training" x="6px" y="201px" width="141px" height="29px" />
      <rect id="id-tech-intro-to-programming-with-scratch-and-javascript" x="519px" y="398px" width="59px" height="56px" />
      <rect id="diyorg-set-up-a-virtual-machine-with-ubuntu-" x="257px" y="170px" width="140px" height="57px" />
    </svg>

    <svg id="robotics" x="1374" y="577" xmlns="http://www.w3.org/2000/svg">
      <rect id="carnegie-mellon-robotics-academy-robots-virtual-world" x="184px" y="243px" width="158px" height="75px" />
      <rect id="girls-of-steel-robotics-the-girls-of-steel-robotics" x="532px" y="549px" width="82px" height="68px" />
      <rect id="id-tech-java-programming" x="184px" y="385px" width="142px" height="26px" />
      <rect id="christopher-atkeson-build-baymax" x="184px" y="114px" width="158px" height="63px" />
      <rect id="carnegie-science-center-chain-reaction-contraption-contest" x="184px" y="324px" width="158px" height="55px" />
      <rect id="carnegie-science-center-roboworld" x="405px" y="388px" width="121px" height="155px" />
      <rect id="synn-labs-music-video-with-rube-goldberg-" x="348px" y="229px" width="67px" height="153px" />
      <rect id="diy-make-a-rube-goldberg-machine" x="348px" y="54px" width="131px" height="114px" />
      <rect id="pittsburgh-first-get-involved" x="108px" y="54px" width="70px" height="123px" />
      <rect id="greene-academy-advanced-robotics" x="485px" y="128px" width="129px" height="40px" />
      <rect id="carnegie-mellon-university-rumbleblocks-" x="485px" y="6px" width="129px" height="116px" />
      <rect id="wilkinsburg-public-library-unmask---bristle-bot-racers" x="348px" y="6px" width="131px" height="42px" />
      <rect id="walt-disney-animation-studios-big-hero-6" x="6px" y="54px" width="96px" height="123px" />
      <rect id="grow-a-generation-engineering-your-passion" x="184px" y="417px" width="142px" height="58px" />
      <rect id="deep-local-nike-chalkbot" x="332px" y="549px" width="194px" height="68px" />
      <rect id="carnegie-mellon-create-lab-hummingbird-robotics-kit" x="6px" y="276px" width="172px" height="69px" />
      <rect id="carnegie-science-center-roboworld-activities" x="69px" y="481px" width="109px" height="136px" />
      <rect id="lifelong-kindergarten-group-at-the-mit-media-lab-scratch" x="108px" y="6px" width="234px" height="42px" />
      <rect id="carnegie-library-of-pittsburgh-weekly-workshop-at-clp---allegheny" x="6px" y="183px" width="172px" height="87px" />
      <rect id="carnegie-library-of-pittsburgh-the-labs-at-clp---main---robotics-workshop-with-girls-of-steel" x="532px" y="361px" width="82px" height="128px" />
      <rect id="assemble-summer-dreamers" x="6px" y="351px" width="172px" height="60px" />
      <rect id="grow-a-generation-audacious-robotocists" x="6px" y="417px" width="172px" height="58px" />
      <rect id="super-awesome-sylvia-watercolorbot" x="532px" y="229px" width="82px" height="126px" />
      <rect id="greene-academy-ev3-lego-robotics" x="184px" y="481px" width="142px" height="136px" />
      <rect id="carnegie-mellon-robotics-academy-robotc" x="184px" y="183px" width="158px" height="54px" />
      <rect id="id-tech-intro-to-programming-with-scratch-and-javascript" x="421px" y="229px" width="105px" height="38px" />
      <rect id="carnegie-mellon-university--cookie-vs-creme---a-robotic-twist" x="532px" y="495px" width="82px" height="48px" />
      <rect id="robocup-manuela-veloso---robocup-champion" x="348px" y="174px" width="266px" height="49px" />
      <rect id="digital-media-academy-online-fundamentals-of-programming" x="6px" y="481px" width="57px" height="136px" />
      <rect id="sarah-heinz-house-join-sharp" x="6px" y="6px" width="96px" height="42px" />
      <rect id="carnegie-mellon-university-school-of-computer-science-leap-at-cmu" x="332px" y="385px" width="67px" height="158px" />
      <rect id="carnegie-mellon-robotics-academy-expedition-atlantis-" x="421px" y="273px" width="105px" height="109px" />
      <rect id="carnegie-mellon-robotics-academy-cs2n" x="184px" y="54px" width="158px" height="54px" />
    </svg>

    <svg id="food-gardening" x="60" y="1254" xmlns="http://www.w3.org/2000/svg">
      <rect id="foraging-pittsburgh-wild-food-walks" x="168px" y="207px" width="158px" height="39px" />
      <rect id="food-revolution-pittsburgh-cooking-club" x="332px" y="527px" width="103px" height="56px" />
      <rect id="the-white-house-lets-move-kids" x="332px" y="252px" width="103px" height="81px" />
      <rect id="food-revolution-pittsburgh-cooking-demos" x="168px" y="655px" width="81px" height="79px" />
      <rect id="falling-fruit-mapping-the-urban-harvest" x="168px" y="595px" width="81px" height="54px" />
      <rect id="food-n-me-various-activities" x="81px" y="339px" width="81px" height="77px" />
      <rect id="food-revolution-pittsburgh-cooking-club-at-harvest-and-create" x="255px" y="589px" width="35px" height="145px" />
      <rect id="food-revolution-pittsburgh-cooking-club-at-summer-dreamers" x="6px" y="339px" width="69px" height="77px" />
      <rect id="fda-read-the-label-youth-outreach-campaign-" x="133px" y="422px" width="29px" height="167px" />
      <rect id="wilkinsburg-public-library-unmask-super-snacks" x="281px" y="106px" width="212px" height="49px" />
      <rect id="usda-choose-my-plate-teen-boys" x="168px" y="6px" width="107px" height="94px" />
      <rect id="saint-paul-episcopal-church-saint-francis-garden" x="81px" y="106px" width="81px" height="95px" />
      <rect id="carnegie-library-of-pittsburgh-cooking-for-teens-" x="133px" y="595px" width="29px" height="139px" />
      <rect id="phipps-conservatory-homegrown-challenges" x="6px" y="172px" width="69px" height="161px" />
      <rect id="webmd-and-whitehouse-webmd-town-hall" x="332px" y="456px" width="103px" height="65px" />
      <rect id="healcrest-farm-farm-fresh-icepops" x="332px" y="207px" width="103px" height="39px" />
      <rect id="fit-webmd-fit-webmd-handbook" x="441px" y="527px" width="52px" height="207px" />
      <rect id="diy-diy-gardener" x="441px" y="334px" width="52px" height="123px" />
      <rect id="usda-choose-my-plate-teen-girls" x="6px" y="422px" width="69px" height="167px" />
      <rect id="pa-summer-food-service-program-summer-food-service-" x="332px" y="339px" width="103px" height="111px" />
      <rect id="grow-pittsburgh-start-a-garden" x="255px" y="422px" width="71px" height="161px" />
      <rect id="fit-webmd-fit-webmd-teen" x="281px" y="6px" width="212px" height="45px" />
      <rect id="sam-stern-light-meals-and-snacks" x="168px" y="161px" width="158px" height="40px" />
      <rect id="teen-observer-alice-waters-article" x="332px" y="161px" width="103px" height="40px" />
      <rect id="no-kid-hungry-no-kid-hungry-summer-" x="296px" y="589px" width="30px" height="145px" />
      <rect id="local-harvest-local-farmers-markets" x="81px" y="595px" width="46px" height="139px" />
      <rect id="food-n-me-smash-your-food" x="168px" y="252px" width="158px" height="81px" />
      <rect id="saint-paul-episcopal-church-mission-trip" x="168px" y="339px" width="158px" height="33px" />
      <rect id="take-part-place-at-the-table" x="168px" y="466px" width="81px" height="123px" />
      <rect id="slow-foods-origins-of-taste" x="168px" y="106px" width="107px" height="49px" />
      <rect id="food-revolution-day-recipes" x="6px" y="106px" width="69px" height="60px" />
      <rect id="slow-foods-youth-network-slow-food-youth-network-eat-the-future-you-want" x="6px" y="595px" width="69px" height="139px" />
      <rect id="cooking-with-rockstars-cooking-with-rockstars" x="6px" y="6px" width="69px" height="94px" />
      <rect id="wild-purveyors-tour-of-store" x="281px" y="57px" width="212px" height="43px" />
      <rect id="phipps-conservatory-phipps-cafe" x="441px" y="463px" width="52px" height="58px" />
      <rect id="center-for-disease--control-bam-body-and-mind" x="332px" y="589px" width="103px" height="145px" />
      <rect id="fox-master-chef-jr" x="81px" y="207px" width="81px" height="126px" />
      <rect id="winter-root-wild-edibles-app" x="441px" y="161px" width="52px" height="167px" />
      <rect id="phipps-conservatory-homegrown-hero-badge-resources-" x="81px" y="422px" width="46px" height="167px" />
      <rect id="phipps-conservatory-12-month-gardening-tips" x="168px" y="422px" width="81px" height="38px" />
      <rect id="eat-local-challenge-10-reasons-to-eat-local-food" x="81px" y="6px" width="81px" height="94px" />
    </svg>

    <svg id="storytelling" x="613" y="1254" xmlns="http://www.w3.org/2000/svg">
      <rect id="the-western-pa-writing-project-young-writers-institutes" x="6px" y="587px" width="106px" height="147px" />
      <rect id="labs-at-carnegie-library-of-pittsburgh-the-labsy-awards" x="744px" y="201px" width="307px" height="133px" />
      <rect id="city-of-asylum-city-of-asylum-events" x="436px" y="255px" width="123px" height="231px" />
      <rect id="toonseum-create-your-own-comic-strip-" x="436px" y="492px" width="123px" height="242px" />
      <rect id="diy-write-a-choose-your-own-adventure" x="565px" y="492px" width="173px" height="130px" />
      <rect id="carnegie-museums-of-art-and-natural-history-comics-and-cartoons" x="326px" y="201px" width="233px" height="48px" />
      <rect id="wilkinsburg-public-library-unmask---summer-reading-challenge" x="744px" y="340px" width="80px" height="146px" />
      <rect id="grow-a-generation-the-writings-of-neil-degrasse-tyson-and-michio-kaku" x="744px" y="492px" width="307px" height="130px" />
      <rect id="studio-360-funny-ha-ha---the-high-school-humor-challenge" x="744px" y="6px" width="195px" height="189px" />
      <rect id="diy-tell-a-scary-story-" x="1057px" y="628px" width="318px" height="106px" />
      <rect id="the-creativity-hub-story-cubes" x="252px" y="6px" width="106px" height="189px" />
      <rect id="toonseum-summer-saturdays-superhero-workshop" x="326px" y="255px" width="104px" height="231px" />
      <rect id="neighborhood-learning-alliance-reading-warriors" x="830px" y="340px" width="221px" height="146px" />
      <rect id="pittsburgh-public-schools-literary-arts-department-at-capa" x="6px" y="6px" width="106px" height="189px" />
      <rect id="the-western-pa-writing-project-scholastic-writing-awards" x="364px" y="6px" width="195px" height="189px" />
      <rect id="the-carnegie-library-of-pittsburgh-teen-summer-reading" x="945px" y="6px" width="106px" height="189px" />
      <rect id="inkle-studios-inklewriter" x="6px" y="201px" width="106px" height="380px" />
      <rect id="luminari-fantastic-fiction-writing---4-day-summer-camp-for-teens-" x="1146px" y="6px" width="229px" height="189px" />
      <rect id="get-lit-get-lit-players" x="744px" y="628px" width="135px" height="106px" />
      <rect id="the-creativity-hub-extraordinaires" x="326px" y="492px" width="104px" height="242px" />
      <rect id="the-creativity-hub-story-cubes-app" x="885px" y="628px" width="166px" height="106px" />
      <rect id="826-valencia-student-writing-gallery" x="565px" y="255px" width="173px" height="231px" />
      <rect id="carnegie-mellon-university-department-of-english-the-martin-luther-king-junior-writing-awards" x="565px" y="6px" width="173px" height="189px" />
      <rect id="scholastic-art-and-writing-awards-scholastic-art-and-writing-awards" x="118px" y="201px" width="128px" height="285px" />
      <rect id="heinz-history-center-pittsburgh-history-detectives" x="1057px" y="6px" width="83px" height="189px" />
      <rect id="alpha-science-fiction-fantasy-horror-workshop-for-young-writers-alpha-science-fiction-fantasy-horror-workshop-for-young-writers" x="1057px" y="407px" width="318px" height="79px" />
      <rect id="the-moth-the-moth-video" x="565px" y="628px" width="173px" height="106px" />
      <rect id="pittsburgh-poetry-collective-young-steel" x="1057px" y="492px" width="318px" height="130px" />
      <rect id="hear-me-hear-me-101-internship-program" x="1057px" y="201px" width="318px" height="133px" />
      <rect id="grow-a-generation-crafting-a-science-fiction-short-story" x="565px" y="201px" width="173px" height="48px" />
      <rect id="hear-me-hear-me-stories" x="252px" y="201px" width="68px" height="285px" />
      <rect id="the-carnegie-library-of-pittsburgh-the-labs-at-clp-allegheny---slb-radio-series" x="1057px" y="340px" width="318px" height="61px" />
      <rect id="figment-the-daily-fig" x="118px" y="492px" width="202px" height="242px" />
      <rect id="inkle-studios-80-days" x="118px" y="6px" width="128px" height="189px" />
    </svg>

  </g>
</svg>
