<svg width="1450px" height="1450px" xmlns="http://www.w3.org/2000/svg">
  <g transform="translate(213.0 213.0) rotate(45 512.0 512.0)">
    <svg id="storytelling" x="60" y="60" xmlns="http://www.w3.org/2000/svg">
      <rect id="pittsburgh-poetry-collective-young-steel" x="6px" y="6px" width="22px" height="134px" />
      <rect id="carnegie-mellon-university-department-of-english-the-martin-luther-king-junior-writing-awards" x="221px" y="190px" width="95px" height="66px" />
      <rect id="figment-the-daily-fig" x="322px" y="58px" width="131px" height="26px" />
      <rect id="wilkinsburg-public-library-unmask---summer-reading-challenge" x="71px" y="101px" width="67px" height="39px" />
      <rect id="hear-me-hear-me-101-internship-program" x="34px" y="204px" width="181px" height="52px" />
      <rect id="labs-at-carnegie-library-of-pittsburgh-the-labsy-awards" x="171px" y="6px" width="44px" height="46px" />
      <rect id="scholastic-art-and-writing-awards-scholastic-art-and-writing-awards" x="459px" y="6px" width="85px" height="46px" />
      <rect id="carnegie-museums-of-art-and-natural-history-comics-and-cartoons" x="359px" y="6px" width="31px" height="46px" />
      <rect id="the-carnegie-library-of-pittsburgh-teen-summer-reading" x="6px" y="146px" width="22px" height="110px" />
      <rect id="the-western-pa-writing-project-young-writers-institutes" x="503px" y="190px" width="41px" height="66px" />
      <rect id="the-creativity-hub-story-cubes-app" x="366px" y="190px" width="87px" height="66px" />
      <rect id="the-western-pa-writing-project-scholastic-writing-awards" x="459px" y="190px" width="38px" height="66px" />
      <rect id="grow-a-generation-the-writings-of-neil-degrasse-tyson-and-michio-kaku" x="322px" y="143px" width="38px" height="41px" />
      <rect id="alpha-science-fiction-fantasy-horror-workshop-for-young-writers-alpha-science-fiction-fantasy-horror-workshop-for-young-writers" x="221px" y="58px" width="95px" height="26px" />
      <rect id="pittsburgh-public-schools-literary-arts-department-at-capa" x="459px" y="109px" width="85px" height="28px" />
      <rect id="the-carnegie-library-of-pittsburgh-the-labs-at-clp-allegheny---slb-radio-series" x="34px" y="146px" width="31px" height="52px" />
      <rect id="826-valencia-student-writing-gallery" x="144px" y="101px" width="71px" height="39px" />
      <rect id="inkle-studios-80-days" x="71px" y="146px" width="67px" height="52px" />
      <rect id="grow-a-generation-crafting-a-science-fiction-short-story" x="503px" y="143px" width="41px" height="41px" />
      <rect id="the-creativity-hub-story-cubes" x="71px" y="6px" width="44px" height="46px" />
      <rect id="toonseum-summer-saturdays-superhero-workshop" x="121px" y="6px" width="44px" height="46px" />
      <rect id="heinz-history-center-pittsburgh-history-detectives" x="459px" y="58px" width="85px" height="45px" />
      <rect id="neighborhood-learning-alliance-reading-warriors" x="221px" y="6px" width="95px" height="46px" />
      <rect id="luminari-fantastic-fiction-writing---4-day-summer-camp-for-teens-" x="144px" y="146px" width="71px" height="52px" />
      <rect id="get-lit-get-lit-players" x="322px" y="6px" width="31px" height="46px" />
      <rect id="studio-360-funny-ha-ha---the-high-school-humor-challenge" x="221px" y="90px" width="95px" height="47px" />
      <rect id="diy-write-a-choose-your-own-adventure" x="366px" y="143px" width="87px" height="41px" />
      <rect id="hear-me-hear-me-stories" x="322px" y="190px" width="38px" height="66px" />
      <rect id="the-creativity-hub-extraordinaires" x="396px" y="6px" width="57px" height="46px" />
      <rect id="city-of-asylum-city-of-asylum-events" x="322px" y="90px" width="131px" height="47px" />
      <rect id="diy-tell-a-scary-story-" x="459px" y="143px" width="38px" height="41px" />
      <rect id="inkle-studios-inklewriter" x="71px" y="58px" width="144px" height="37px" />
      <rect id="the-moth-the-moth-video" x="221px" y="143px" width="95px" height="41px" />
      <rect id="toonseum-create-your-own-comic-strip-" x="34px" y="6px" width="31px" height="134px" />
    </svg>

    <svg id="robotics" x="664" y="60" xmlns="http://www.w3.org/2000/svg">
      <rect id="diy-make-a-rube-goldberg-machine" x="126px" y="93px" width="22px" height="46px" />
      <rect id="assemble-summer-dreamers" x="6px" y="6px" width="72px" height="12px" />
      <rect id="carnegie-mellon-robotics-academy-expedition-atlantis-" x="84px" y="6px" width="94px" height="19px" />
      <rect id="carnegie-mellon-university-rumbleblocks-" x="210px" y="201px" width="27px" height="15px" />
      <rect id="greene-academy-ev3-lego-robotics" x="243px" y="201px" width="57px" height="15px" />
      <rect id="grow-a-generation-audacious-robotocists" x="6px" y="24px" width="72px" height="26px" />
      <rect id="carnegie-library-of-pittsburgh-the-labs-at-clp---main---robotics-workshop-with-girls-of-steel" x="243px" y="93px" width="57px" height="46px" />
      <rect id="carnegie-science-center-roboworld" x="184px" y="31px" width="116px" height="19px" />
      <rect id="carnegie-science-center-chain-reaction-contraption-contest" x="126px" y="200px" width="78px" height="56px" />
      <rect id="greene-academy-advanced-robotics" x="27px" y="145px" width="51px" height="12px" />
      <rect id="carnegie-mellon-robotics-academy-robotc" x="84px" y="56px" width="94px" height="31px" />
      <rect id="carnegie-science-center-roboworld-activities" x="243px" y="222px" width="57px" height="34px" />
      <rect id="id-tech-java-programming" x="126px" y="163px" width="78px" height="31px" />
      <rect id="carnegie-mellon-university-school-of-computer-science-leap-at-cmu" x="84px" y="145px" width="36px" height="12px" />
      <rect id="girls-of-steel-robotics-the-girls-of-steel-robotics" x="210px" y="145px" width="27px" height="50px" />
      <rect id="carnegie-mellon-robotics-academy-robots-virtual-world" x="27px" y="93px" width="51px" height="46px" />
      <rect id="digital-media-academy-online-fundamentals-of-programming" x="48px" y="163px" width="30px" height="93px" />
      <rect id="christopher-atkeson-build-baymax" x="84px" y="93px" width="36px" height="46px" />
      <rect id="walt-disney-animation-studios-big-hero-6" x="6px" y="56px" width="72px" height="31px" />
      <rect id="synn-labs-music-video-with-rube-goldberg-" x="184px" y="6px" width="116px" height="19px" />
      <rect id="lifelong-kindergarten-group-at-the-mit-media-lab-scratch" x="126px" y="145px" width="78px" height="12px" />
      <rect id="deep-local-nike-chalkbot" x="84px" y="31px" width="94px" height="19px" />
      <rect id="id-tech-intro-to-programming-with-scratch-and-javascript" x="6px" y="230px" width="15px" height="26px" />
      <rect id="pittsburgh-first-get-involved" x="27px" y="163px" width="15px" height="93px" />
      <rect id="grow-a-generation-engineering-your-passion" x="210px" y="222px" width="27px" height="34px" />
      <rect id="super-awesome-sylvia-watercolorbot" x="154px" y="93px" width="50px" height="46px" />
      <rect id="robocup-manuela-veloso---robocup-champion" x="184px" y="56px" width="53px" height="31px" />
      <rect id="carnegie-mellon-create-lab-hummingbird-robotics-kit" x="210px" y="93px" width="27px" height="46px" />
      <rect id="sarah-heinz-house-join-sharp" x="243px" y="56px" width="57px" height="31px" />
      <rect id="carnegie-library-of-pittsburgh-weekly-workshop-at-clp---allegheny" x="243px" y="145px" width="57px" height="50px" />
      <rect id="wilkinsburg-public-library-unmask---bristle-bot-racers" x="84px" y="163px" width="36px" height="93px" />
      <rect id="carnegie-mellon-robotics-academy-cs2n" x="6px" y="93px" width="15px" height="46px" />
      <rect id="carnegie-mellon-university--cookie-vs-creme---a-robotic-twist" x="6px" y="145px" width="15px" height="79px" />
    </svg>

    <svg id="mediamaking" x="60" y="376" xmlns="http://www.w3.org/2000/svg">
      <rect id="pf-and-pca-filmmakers-youth-media-foundations-of-photography" x="99px" y="6px" width="42px" height="23px" />
      <rect id="interview-magazine-andy-warhol-magazine--interview-" x="167px" y="189px" width="22px" height="43px" />
      <rect id="steeltown-entertainment-youth-and-media" x="211px" y="189px" width="40px" height="43px" />
      <rect id="mcg-youth-and-arts-electric-avenue" x="192px" y="35px" width="59px" height="10px" />
      <rect id="pf-and-pca-filmmakers-youth-media-graphic-design" x="192px" y="51px" width="14px" height="47px" />
      <rect id="the-criterion-collection-criterion-collection-top-10s" x="212px" y="51px" width="39px" height="47px" />
      <rect id="jenesis-magazine-online-youth-lifestyle-publication-based-in-pittsburgh" x="6px" y="154px" width="30px" height="78px" />
      <rect id="pf-and-pca-filmmakers-youth-media-photography-at-pf" x="147px" y="35px" width="14px" height="63px" />
      <rect id="wyep-rock-radio-camp" x="72px" y="154px" width="21px" height="29px" />
      <rect id="diy-org-make-trick-photography-" x="285px" y="154px" width="27px" height="78px" />
      <rect id="teen-ink-teen-ink-video" x="147px" y="6px" width="104px" height="23px" />
      <rect id="carnegie-science-center-i5-video-competition" x="257px" y="104px" width="55px" height="44px" />
      <rect id="vimeo-directing-101" x="257px" y="58px" width="55px" height="40px" />
      <rect id="mcg-youth-and-arts-photography" x="257px" y="6px" width="55px" height="46px" />
      <rect id="diy-org-create-a-book-trailer" x="6px" y="104px" width="30px" height="44px" />
      <rect id="pf-and-pca-filmmakers-youth-media-foundations-of-filmmaking" x="42px" y="104px" width="51px" height="44px" />
      <rect id="diy-org-build-a-photo-studio" x="99px" y="104px" width="62px" height="44px" />
      <rect id="pf-and-pca-filmmakers-youth-media-cryptozoology" x="257px" y="189px" width="22px" height="43px" />
      <rect id="pf-and-pca-filmmakers-youth-media-handmade-filmmaking-at-pf" x="99px" y="154px" width="62px" height="29px" />
      <rect id="labs-at-carnegie-library-of-pittsburgh-open-lab" x="42px" y="154px" width="24px" height="78px" />
      <rect id="mcg-youth-and-arts-the-wide-world-of-photo" x="167px" y="104px" width="84px" height="44px" />
      <rect id="pf-and-pca-filmmakers-youth-media-directors-workshop" x="6px" y="6px" width="30px" height="92px" />
      <rect id="carnegie-science-center-digital-video-smash-jam-two-day-workshop" x="167px" y="154px" width="84px" height="29px" />
      <rect id="diy-org-film-a-spoof-video" x="257px" y="154px" width="22px" height="29px" />
      <rect id="labs-at-carnegie-library-of-pittsburgh-clp-teens-tumblr" x="42px" y="6px" width="19px" height="92px" />
      <rect id="white-house-the-white-house--students-film-festival" x="67px" y="6px" width="26px" height="92px" />
      <rect id="madmagz-make-your-own-magazine" x="72px" y="189px" width="89px" height="43px" />
      <rect id="diy-org-reenact-a-scene" x="167px" y="35px" width="19px" height="63px" />
      <rect id="wyep-radio-tour" x="195px" y="189px" width="10px" height="43px" />
      <rect id="starz-the-chair" x="99px" y="35px" width="42px" height="63px" />
    </svg>

    <svg id="coding-gaming" x="432" y="376" xmlns="http://www.w3.org/2000/svg">
      <rect id="grow-a-generation-mobile-app-development" x="196px" y="106px" width="51px" height="20px" />
      <rect id="computer-science-education-week-thinkersmith-unplugged-hour-of-code-activity" x="90px" y="162px" width="100px" height="20px" />
      <rect id="assemble-make-it" x="6px" y="78px" width="78px" height="22px" />
      <rect id="women-at-scs-school-of-computer-science---carnegie-mellon-university-creative-tech-nights" x="90px" y="188px" width="100px" height="32px" />
      <rect id="lifelong-kindergarten-group-at-the-mit-media-lab-scratch" x="475px" y="174px" width="57px" height="38px" />
      <rect id="stem-advanced-technologies-for-kids-mobile-app-design" x="393px" y="106px" width="76px" height="43px" />
      <rect id="id-tech-mobile-game-design-for-iphone-and-android" x="253px" y="218px" width="64px" height="43px" />
      <rect id="carnegie-science-center--click---spy-mission" x="6px" y="106px" width="78px" height="14px" />
      <rect id="diyorg-minecrafter" x="475px" y="155px" width="57px" height="13px" />
      <rect id="diyorg-make-a-board-game" x="323px" y="218px" width="64px" height="43px" />
      <rect id="remake-learning-digital-learning-tools" x="475px" y="78px" width="57px" height="10px" />
      <rect id="mozilla-webmaker-x-ray-goggles" x="36px" y="226px" width="48px" height="35px" />
      <rect id="diyorg-make-a-pen-and-paper-game" x="393px" y="174px" width="76px" height="38px" />
      <rect id="mozilla-webmaker-make-a-meme" x="253px" y="78px" width="64px" height="22px" />
      <rect id="girl-develop-it-html-intro" x="36px" y="188px" width="48px" height="32px" />
      <rect id="codecademy-make-an-interactive-website" x="323px" y="106px" width="64px" height="43px" />
      <rect id="codeorg-20-hour-intro-course" x="253px" y="6px" width="36px" height="66px" />
      <rect id="carnegie-mellon-university-school-of-computer-science-leap-at-cmu" x="6px" y="126px" width="78px" height="30px" />
      <rect id="id-tech-adventures-in-minecraft-game-design" x="53px" y="6px" width="31px" height="66px" />
      <rect id="girl-develop-it-introduction-to-web-concepts" x="253px" y="155px" width="64px" height="13px" />
      <rect id="id-tech-game-programming-for-apple-ios-and-android-with-unity" x="323px" y="155px" width="64px" height="13px" />
      <rect id="w3-schools-html5-tutorial" x="440px" y="40px" width="29px" height="32px" />
      <rect id="global-game-jam-2015-global-game-jam-games" x="443px" y="218px" width="26px" height="43px" />
      <rect id="tumblr-how-to-create-a-custom-html-theme" x="129px" y="226px" width="26px" height="35px" />
      <rect id="instructables-create-tumblr-account" x="475px" y="121px" width="57px" height="28px" />
      <rect id="codecademy-make-a-website" x="6px" y="162px" width="24px" height="99px" />
      <rect id="id-tech-java-programming" x="6px" y="6px" width="41px" height="66px" />
      <rect id="appshed-academy" x="220px" y="78px" width="27px" height="22px" />
      <rect id="gamesalad-game-salad" x="161px" y="226px" width="29px" height="35px" />
      <rect id="webmaker-tools-appmaker" x="155px" y="6px" width="36px" height="66px" />
      <rect id="id-tech-intro-to-programming-with-scratch-and-javascript" x="196px" y="162px" width="51px" height="20px" />
      <rect id="p2pu-webmaking-101" x="475px" y="40px" width="57px" height="32px" />
      <rect id="institute-of-play-gamekit-challenge-pack---the-basics" x="346px" y="174px" width="41px" height="38px" />
      <rect id="school-of-open-get-to-know-the-hackasaurus-xray-goggles" x="323px" y="6px" width="41px" height="66px" />
      <rect id="diyorg-design-a-body-game" x="196px" y="132px" width="51px" height="24px" />
      <rect id="codeorg-studio-activities" x="90px" y="6px" width="31px" height="66px" />
      <rect id="schell-games-gamesprout" x="196px" y="226px" width="51px" height="35px" />
      <rect id="made-w-code-watch-the-film" x="393px" y="218px" width="22px" height="43px" />
      <rect id="institute-of-play-through-the-arcade" x="253px" y="106px" width="64px" height="43px" />
      <rect id="diyorg-set-up-a-virtual-machine-with-ubuntu-" x="323px" y="174px" width="17px" height="38px" />
      <rect id="neighborhood-learning-alliance-tech-warriors-training" x="421px" y="218px" width="16px" height="43px" />
      <rect id="stem-advanced-technologies-for-kids-video-game-design" x="127px" y="6px" width="22px" height="66px" />
      <rect id="the-jerome-bettis-bus-stops-here-foundation-the-cyber-bus-computer-engineering-program" x="196px" y="188px" width="51px" height="32px" />
      <rect id="girl-develop-it-intermediate-html-and-css" x="440px" y="78px" width="29px" height="22px" />
      <rect id="codeorg-code-combat" x="90px" y="226px" width="33px" height="35px" />
      <rect id="brain-pop-digital-etiquette-quiz" x="323px" y="78px" width="111px" height="22px" />
      <rect id="girl-develop-it-web-accessibility" x="197px" y="6px" width="17px" height="66px" />
      <rect id="diyorg-gather-website-inspiration" x="90px" y="78px" width="124px" height="22px" />
      <rect id="webmaker-training-building-on-the-web" x="220px" y="6px" width="27px" height="66px" />
      <rect id="carnegie-science-center-click---spy-school" x="36px" y="162px" width="48px" height="20px" />
      <rect id="webmaker-tools-thimble" x="295px" y="6px" width="22px" height="66px" />
      <rect id="digital-media-academy-online-fundamentals-of-programming" x="370px" y="6px" width="27px" height="66px" />
      <rect id="girl-develop-it-introduction-to-git-and-github" x="403px" y="6px" width="31px" height="66px" />
      <rect id="cs2n-rumbleblocks" x="393px" y="155px" width="76px" height="13px" />
      <rect id="brain-pop-digital-etiquette" x="440px" y="6px" width="92px" height="28px" />
      <rect id="e-line-media-gamestar-mechanic" x="253px" y="174px" width="64px" height="38px" />
      <rect id="codeorg-make-a-flappy-game" x="90px" y="132px" width="100px" height="24px" />
      <rect id="webmaker-training-html-basics" x="504px" y="218px" width="28px" height="43px" />
      <rect id="codecademy-python" x="90px" y="106px" width="100px" height="20px" />
      <rect id="microsoft-virtual-academy-hour-of-code-event-training" x="475px" y="94px" width="57px" height="21px" />
      <rect id="tumblr-theme-garden" x="475px" y="218px" width="23px" height="43px" />
    </svg>

    <svg id="art-design" x="60" y="668" xmlns="http://www.w3.org/2000/svg">
      <rect id="diy-hack-a-t-shirt-" x="240px" y="225px" width="72px" height="33px" />
      <rect id="evan-mirapaul-la-hutte-royal" x="6px" y="225px" width="44px" height="23px" />
      <rect id="society-for-contemporary-craft-drop-in-studio" x="240px" y="88px" width="72px" height="34px" />
      <rect id="mcg-youth-and-arts-electric-avenue" x="169px" y="187px" width="65px" height="11px" />
      <rect id="carnegie-museums-of-art-and-natural-history-fiber-art" x="109px" y="105px" width="54px" height="14px" />
      <rect id="tech-shop-steam003---textile-printing-and-sewing-" x="149px" y="43px" width="14px" height="56px" />
      <rect id="pittsburgh-center-for-creative-reuse-the-remaker-playshop---sew-mend-make" x="240px" y="161px" width="72px" height="20px" />
      <rect id="mattress-factory-summer-art-cooperative" x="169px" y="225px" width="20px" height="71px" />
      <rect id="design-boom-design-boom" x="97px" y="225px" width="32px" height="23px" />
      <rect id="the-andy-warhol-museum-vertical-silkscreen-printing-with-stefan-hoffmann" x="6px" y="161px" width="44px" height="20px" />
      <rect id="diy-sketch-a-real-building-" x="56px" y="105px" width="47px" height="50px" />
      <rect id="food-revolution-pittsburgh-cooking-club-at-harvest-and-create" x="204px" y="125px" width="30px" height="30px" />
      <rect id="mattress-factory-community-art-lab" x="97px" y="187px" width="66px" height="11px" />
      <rect id="labs-at-carnegie-library-of-pittsburgh-the-labsy-awards" x="114px" y="6px" width="78px" height="31px" />
      <rect id="pittsburgh-filmmaker-and-center-for-the-arts-creature-design-and-mask-making" x="240px" y="187px" width="72px" height="11px" />
      <rect id="carnegie-museums-of-art--interact" x="6px" y="187px" width="44px" height="32px" />
      <rect id="carnegie-museums-of-art-and-natural-history-dream-house---sketch-to-structure" x="190px" y="60px" width="44px" height="39px" />
      <rect id="carnegie-museums-of-art-and-natural-history-drawing-people" x="240px" y="6px" width="72px" height="31px" />
      <rect id="the-andy-warhol-museum-online-weeeknd-factory" x="109px" y="43px" width="34px" height="56px" />
      <rect id="society-for-contemporary-craft-visit-scc-store" x="6px" y="105px" width="44px" height="50px" />
      <rect id="colossal-colossal" x="240px" y="204px" width="72px" height="15px" />
      <rect id="moma--moma-teens-online" x="56px" y="225px" width="35px" height="23px" />
      <rect id="labs-at-carnegie-library-of-pittsburgh-open-lab" x="56px" y="187px" width="35px" height="32px" />
      <rect id="carnegie-museums-of-art-and-natural-history-youth-museum-institute---exhibit-design-lab" x="169px" y="105px" width="65px" height="14px" />
      <rect id="the-andy-warhol-museum-andy-warhol---pop-portraits-and-selfies" x="109px" y="125px" width="54px" height="30px" />
      <rect id="pittsburgh-filmmaker-and-center-for-the-arts-drawing" x="169px" y="43px" width="65px" height="11px" />
      <rect id="pittsburgh-filmmaker-and-center-for-the-arts-raku" x="89px" y="6px" width="19px" height="31px" />
      <rect id="mcg-youth-and-arts-the-wide-world-of-photo" x="240px" y="43px" width="72px" height="11px" />
      <rect id="mcg-youth-and-arts-ceramics-sets" x="169px" y="161px" width="65px" height="20px" />
      <rect id="mcg-youth-and-arts-pillows-galore" x="6px" y="43px" width="44px" height="56px" />
      <rect id="tek-start-the-beauty-of-stem-makers-institute" x="240px" y="60px" width="72px" height="22px" />
      <rect id="the-andy-warhol-museum-youth-open-studio" x="56px" y="161px" width="107px" height="20px" />
      <rect id="labs-at-carnegie-library-of-pittsburgh-fashion-design-workshops" x="169px" y="60px" width="15px" height="39px" />
      <rect id="pittsburgh-filmmaker-and-center-for-the-arts-the-shop" x="56px" y="6px" width="27px" height="31px" />
      <rect id="carnegie-museums-of-art-and-natural-history-sketchbook" x="135px" y="225px" width="28px" height="71px" />
      <rect id="mcg-youth-and-arts-print-draw-paint" x="56px" y="254px" width="35px" height="42px" />
      <rect id="mcg-youth-and-arts-digital-expressions" x="6px" y="254px" width="44px" height="42px" />
      <rect id="open-ideo-adding-visual-goodness-to-your-ideas-" x="89px" y="43px" width="14px" height="56px" />
      <rect id="deviant-art-deviantart" x="97px" y="254px" width="32px" height="42px" />
      <rect id="carnegie-museums-of-art-and-natural-history-city-explorers---urban-designers" x="97px" y="204px" width="66px" height="15px" />
      <rect id="pittsburgh-filmmaker-and-center-for-the-arts-high-fire-ceramics" x="169px" y="204px" width="65px" height="15px" />
      <rect id="pittsburgh-filmmaker-and-center-for-the-arts-manipulating-metals" x="169px" y="125px" width="29px" height="30px" />
      <rect id="pittsburgh-filmmaker-and-center-for-the-arts-anime" x="6px" y="6px" width="44px" height="31px" />
      <rect id="carnegie-museums-of-art-and-natural-history-you-are-here---pittsburgh-placemaking" x="195px" y="225px" width="39px" height="71px" />
      <rect id="pittsburgh-filmmaker-and-center-for-the-arts-stained-glass" x="240px" y="128px" width="72px" height="27px" />
      <rect id="carnegie-museums-of-art-and-natural-history-experimental-drawing-and-painting" x="198px" y="6px" width="36px" height="31px" />
      <rect id="society-for-contemporary-craft-contemporary-craft-blog" x="56px" y="43px" width="27px" height="56px" />
      <rect id="pittsburgh-filmmaker-and-center-for-the-arts-graphic-design" x="240px" y="264px" width="72px" height="32px" />
    </svg>

    <svg id="building-making" x="432" y="697" xmlns="http://www.w3.org/2000/svg">
      <rect id="tech-shop-visit-tech-shop" x="61px" y="6px" width="30px" height="19px" />
      <rect id="diy-make-a-rube-goldberg-machine-" x="6px" y="212px" width="71px" height="17px" />
      <rect id="assemble-learning-parties" x="97px" y="6px" width="65px" height="19px" />
      <rect id="childrens-museum-of-pittsburgh-the-makeshop-show" x="144px" y="232px" width="18px" height="35px" />
      <rect id="diy-lego-master" x="144px" y="76px" width="18px" height="22px" />
      <rect id="assemble-m3---materials-media-and-me" x="61px" y="50px" width="55px" height="20px" />
      <rect id="pbs-kids-pbs-design-squad---build" x="6px" y="148px" width="71px" height="12px" />
      <rect id="assemble-assemble-afterschool" x="83px" y="185px" width="55px" height="21px" />
      <rect id="super-awesome-sylvia-show-super-awesome-sylvia---episodes" x="144px" y="200px" width="18px" height="26px" />
      <rect id="ted-talks-life-lessons-through-tinkering" x="6px" y="76px" width="49px" height="36px" />
      <rect id="assemble-saturday-crafternoons-" x="6px" y="47px" width="49px" height="23px" />
      <rect id="diy-minecrafter" x="83px" y="235px" width="55px" height="32px" />
      <rect id="built-by-kids-activities" x="83px" y="118px" width="17px" height="24px" />
      <rect id="assemble-youth-maker-night" x="83px" y="148px" width="55px" height="12px" />
      <rect id="hack-pittsburgh-visit-hackpittsburgh" x="6px" y="31px" width="49px" height="10px" />
      <rect id="childrens-museum-of-pittsburgh-makeshop" x="61px" y="31px" width="30px" height="13px" />
      <rect id="diy-sketch-a-real-building-" x="83px" y="212px" width="55px" height="17px" />
      <rect id="assemble-unblurred" x="97px" y="31px" width="65px" height="13px" />
      <rect id="instructables-build-something" x="30px" y="235px" width="47px" height="32px" />
      <rect id="maker-faire--visit-maker-faire-pittsburgh" x="6px" y="235px" width="18px" height="32px" />
      <rect id="slamacow-minecraft-leaking-into-the-real-world---minecraft-animation" x="61px" y="76px" width="16px" height="36px" />
      <rect id="gtech-strategies-412-build" x="6px" y="166px" width="71px" height="13px" />
      <rect id="millvale-community-library-maker-thursdays" x="6px" y="6px" width="49px" height="19px" />
      <rect id="maker-media-make-magazine" x="83px" y="166px" width="55px" height="13px" />
      <rect id="northern-tier-regional-library-cube-head-superheroes" x="122px" y="50px" width="40px" height="20px" />
      <rect id="carnegie-science-center-fab-lab" x="83px" y="76px" width="33px" height="36px" />
      <rect id="assemble-teens-as-teachers" x="122px" y="76px" width="16px" height="36px" />
      <rect id="lego-lego-sets" x="6px" y="185px" width="71px" height="21px" />
      <rect id="society-for-contemporary-craft-drop-in-studio" x="144px" y="104px" width="18px" height="90px" />
      <rect id="pbs-kids-pbs-design-squad---watch" x="6px" y="118px" width="71px" height="24px" />
      <rect id="pittsburgh-center-for-creative-reuse-the-remaker-playshop---sew-mend-make" x="106px" y="118px" width="32px" height="24px" />
    </svg>

    <svg id="food-gardening" x="654" y="697" xmlns="http://www.w3.org/2000/svg">
      <rect id="teen-observer-alice-waters-article" x="253px" y="98px" width="57px" height="21px" />
      <rect id="carnegie-library-of-pittsburgh-cooking-for-teens-" x="130px" y="52px" width="50px" height="40px" />
      <rect id="webmd-and-whitehouse-webmd-town-hall" x="68px" y="224px" width="56px" height="43px" />
      <rect id="food-revolution-pittsburgh-cooking-club-at-summer-dreamers" x="68px" y="172px" width="56px" height="24px" />
      <rect id="fox-master-chef-jr" x="130px" y="98px" width="117px" height="21px" />
      <rect id="grow-pittsburgh-start-a-garden" x="253px" y="6px" width="12px" height="40px" />
      <rect id="food-revolution-day-recipes" x="99px" y="125px" width="25px" height="41px" />
      <rect id="winter-root-wild-edibles-app" x="271px" y="6px" width="39px" height="40px" />
      <rect id="eat-local-challenge-10-reasons-to-eat-local-food" x="253px" y="52px" width="57px" height="40px" />
      <rect id="saint-paul-episcopal-church-mission-trip" x="6px" y="98px" width="56px" height="12px" />
      <rect id="sam-stern-light-meals-and-snacks" x="68px" y="52px" width="25px" height="40px" />
      <rect id="pa-summer-food-service-program-summer-food-service-" x="186px" y="6px" width="12px" height="40px" />
      <rect id="phipps-conservatory-homegrown-hero-badge-resources-" x="130px" y="202px" width="98px" height="16px" />
      <rect id="fda-read-the-label-youth-outreach-campaign-" x="204px" y="6px" width="25px" height="40px" />
      <rect id="slow-foods-youth-network-slow-food-youth-network-eat-the-future-you-want" x="6px" y="143px" width="56px" height="17px" />
      <rect id="no-kid-hungry-no-kid-hungry-summer-" x="130px" y="247px" width="37px" height="20px" />
      <rect id="saint-paul-episcopal-church-saint-francis-garden" x="99px" y="52px" width="25px" height="40px" />
      <rect id="usda-choose-my-plate-teen-girls" x="6px" y="116px" width="56px" height="21px" />
      <rect id="food-revolution-pittsburgh-cooking-demos" x="274px" y="202px" width="36px" height="16px" />
      <rect id="wilkinsburg-public-library-unmask-super-snacks" x="130px" y="125px" width="25px" height="41px" />
      <rect id="wild-purveyors-tour-of-store" x="161px" y="125px" width="43px" height="41px" />
      <rect id="phipps-conservatory-homegrown-challenges" x="6px" y="202px" width="28px" height="65px" />
      <rect id="healcrest-farm-farm-fresh-icepops" x="234px" y="125px" width="76px" height="41px" />
      <rect id="food-revolution-pittsburgh-cooking-club-at-harvest-and-create" x="6px" y="166px" width="56px" height="30px" />
      <rect id="falling-fruit-mapping-the-urban-harvest" x="99px" y="98px" width="25px" height="21px" />
      <rect id="fit-webmd-fit-webmd-handbook" x="6px" y="52px" width="56px" height="40px" />
      <rect id="phipps-conservatory-12-month-gardening-tips" x="234px" y="202px" width="34px" height="16px" />
      <rect id="the-white-house-lets-move-kids" x="235px" y="6px" width="12px" height="40px" />
      <rect id="phipps-conservatory-phipps-cafe" x="173px" y="247px" width="55px" height="20px" />
      <rect id="food-n-me-smash-your-food" x="6px" y="6px" width="56px" height="40px" />
      <rect id="diy-diy-gardener" x="68px" y="6px" width="56px" height="40px" />
      <rect id="fit-webmd-fit-webmd-teen" x="130px" y="6px" width="50px" height="40px" />
      <rect id="local-harvest-local-farmers-markets" x="68px" y="98px" width="25px" height="68px" />
      <rect id="food-n-me-various-activities" x="130px" y="172px" width="98px" height="24px" />
      <rect id="usda-choose-my-plate-teen-boys" x="130px" y="224px" width="98px" height="17px" />
      <rect id="center-for-disease--control-bam-body-and-mind" x="40px" y="202px" width="22px" height="65px" />
      <rect id="slow-foods-origins-of-taste" x="234px" y="224px" width="34px" height="43px" />
      <rect id="take-part-place-at-the-table" x="274px" y="224px" width="36px" height="43px" />
      <rect id="cooking-with-rockstars-cooking-with-rockstars" x="210px" y="125px" width="18px" height="41px" />
      <rect id="foraging-pittsburgh-wild-food-walks" x="234px" y="172px" width="76px" height="24px" />
      <rect id="food-revolution-pittsburgh-cooking-club" x="68px" y="202px" width="56px" height="16px" />
    </svg>

  </g>
</svg>
