<svg width="1450px" height="1450px" xmlns="http://www.w3.org/2000/svg">
  <g transform="translate(213.0 213.0) rotate(45 512.0 512.0)">
    <svg id="storytelling" x="60" y="60" xmlns="http://www.w3.org/2000/svg">
      <rect id="labs-at-carnegie-library-of-pittsburgh-the-labsy-awards" x="6px" y="310px" width="94px" height="33px" />
      <rect id="get-lit-get-lit-players" x="106px" y="294px" width="38px" height="61px" />
      <rect id="grow-a-generation-the-writings-of-neil-degrasse-tyson-and-michio-kaku" x="150px" y="361px" width="41px" height="28px" />
      <rect id="carnegie-museums-of-art-and-natural-history-comics-and-cartoons" x="56px" y="6px" width="57px" height="89px" />
      <rect id="heinz-history-center-pittsburgh-history-detectives" x="25px" y="6px" width="25px" height="89px" />
      <rect id="pittsburgh-poetry-collective-young-steel" x="106px" y="239px" width="38px" height="49px" />
      <rect id="toonseum-create-your-own-comic-strip-" x="119px" y="6px" width="25px" height="89px" />
      <rect id="grow-a-generation-crafting-a-science-fiction-short-story" x="39px" y="482px" width="61px" height="50px" />
      <rect id="scholastic-art-and-writing-awards-scholastic-art-and-writing-awards" x="150px" y="395px" width="41px" height="137px" />
      <rect id="the-creativity-hub-story-cubes" x="222px" y="141px" width="41px" height="26px" />
      <rect id="the-creativity-hub-story-cubes-app" x="150px" y="101px" width="66px" height="66px" />
      <rect id="studio-360-funny-ha-ha---the-high-school-humor-challenge" x="197px" y="361px" width="66px" height="28px" />
      <rect id="the-moth-the-moth-video" x="150px" y="294px" width="113px" height="61px" />
      <rect id="hear-me-hear-me-stories" x="150px" y="206px" width="113px" height="27px" />
      <rect id="diy-tell-a-scary-story-" x="6px" y="263px" width="94px" height="41px" />
      <rect id="the-western-pa-writing-project-scholastic-writing-awards" x="6px" y="482px" width="27px" height="50px" />
      <rect id="diy-write-a-choose-your-own-adventure" x="150px" y="173px" width="113px" height="27px" />
      <rect id="figment-the-daily-fig" x="6px" y="349px" width="94px" height="22px" />
      <rect id="826-valencia-student-writing-gallery" x="106px" y="361px" width="38px" height="171px" />
      <rect id="hear-me-hear-me-101-internship-program" x="6px" y="239px" width="94px" height="18px" />
      <rect id="wilkinsburg-public-library-unmask---summer-reading-challenge" x="150px" y="6px" width="113px" height="39px" />
      <rect id="luminari-fantastic-fiction-writing---4-day-summer-camp-for-teens-" x="6px" y="377px" width="94px" height="25px" />
      <rect id="the-creativity-hub-extraordinaires" x="56px" y="101px" width="88px" height="66px" />
      <rect id="city-of-asylum-city-of-asylum-events" x="6px" y="206px" width="138px" height="27px" />
      <rect id="inkle-studios-inklewriter" x="6px" y="101px" width="44px" height="66px" />
      <rect id="the-carnegie-library-of-pittsburgh-the-labs-at-clp-allegheny---slb-radio-series" x="150px" y="239px" width="113px" height="49px" />
      <rect id="pittsburgh-public-schools-literary-arts-department-at-capa" x="197px" y="395px" width="66px" height="55px" />
      <rect id="neighborhood-learning-alliance-reading-warriors" x="150px" y="51px" width="66px" height="44px" />
      <rect id="the-carnegie-library-of-pittsburgh-teen-summer-reading" x="222px" y="51px" width="41px" height="84px" />
      <rect id="inkle-studios-80-days" x="6px" y="173px" width="138px" height="27px" />
      <rect id="the-western-pa-writing-project-young-writers-institutes" x="6px" y="437px" width="94px" height="39px" />
      <rect id="toonseum-summer-saturdays-superhero-workshop" x="6px" y="6px" width="13px" height="89px" />
      <rect id="carnegie-mellon-university-department-of-english-the-martin-luther-king-junior-writing-awards" x="197px" y="456px" width="66px" height="76px" />
      <rect id="alpha-science-fiction-fantasy-horror-workshop-for-young-writers-alpha-science-fiction-fantasy-horror-workshop-for-young-writers" x="6px" y="408px" width="94px" height="23px" />
    </svg>

    <svg id="mediamaking" x="383" y="60" xmlns="http://www.w3.org/2000/svg">
      <rect id="pf-and-pca-filmmakers-youth-media-handmade-filmmaking-at-pf" x="499px" y="6px" width="56px" height="35px" />
      <rect id="wyep-rock-radio-camp" x="561px" y="67px" width="34px" height="39px" />
      <rect id="the-criterion-collection-criterion-collection-top-10s" x="499px" y="47px" width="56px" height="59px" />
      <rect id="teen-ink-teen-ink-video" x="33px" y="37px" width="24px" height="69px" />
      <rect id="pf-and-pca-filmmakers-youth-media-foundations-of-photography" x="185px" y="6px" width="21px" height="100px" />
      <rect id="white-house-the-white-house--students-film-festival" x="80px" y="37px" width="38px" height="69px" />
      <rect id="diy-org-create-a-book-trailer" x="124px" y="37px" width="11px" height="69px" />
      <rect id="pf-and-pca-filmmakers-youth-media-cryptozoology" x="141px" y="37px" width="38px" height="15px" />
      <rect id="mcg-youth-and-arts-electric-avenue" x="337px" y="6px" width="48px" height="35px" />
      <rect id="starz-the-chair" x="277px" y="37px" width="24px" height="69px" />
      <rect id="jenesis-magazine-online-youth-lifestyle-publication-based-in-pittsburgh" x="307px" y="6px" width="24px" height="100px" />
      <rect id="pf-and-pca-filmmakers-youth-media-foundations-of-filmmaking" x="236px" y="37px" width="35px" height="69px" />
      <rect id="pf-and-pca-filmmakers-youth-media-directors-workshop" x="429px" y="47px" width="25px" height="59px" />
      <rect id="diy-org-reenact-a-scene" x="460px" y="47px" width="33px" height="59px" />
      <rect id="diy-org-build-a-photo-studio" x="212px" y="6px" width="18px" height="100px" />
      <rect id="vimeo-directing-101" x="561px" y="47px" width="34px" height="14px" />
      <rect id="labs-at-carnegie-library-of-pittsburgh-clp-teens-tumblr" x="236px" y="6px" width="35px" height="25px" />
      <rect id="madmagz-make-your-own-magazine" x="277px" y="6px" width="24px" height="25px" />
      <rect id="wyep-radio-tour" x="141px" y="58px" width="38px" height="48px" />
      <rect id="carnegie-science-center-i5-video-competition" x="561px" y="6px" width="34px" height="35px" />
      <rect id="pf-and-pca-filmmakers-youth-media-photography-at-pf" x="6px" y="6px" width="21px" height="100px" />
      <rect id="labs-at-carnegie-library-of-pittsburgh-open-lab" x="460px" y="6px" width="33px" height="35px" />
      <rect id="mcg-youth-and-arts-the-wide-world-of-photo" x="33px" y="6px" width="24px" height="25px" />
      <rect id="diy-org-make-trick-photography-" x="63px" y="6px" width="55px" height="25px" />
      <rect id="mcg-youth-and-arts-photography" x="124px" y="6px" width="55px" height="25px" />
      <rect id="diy-org-film-a-spoof-video" x="337px" y="47px" width="48px" height="59px" />
      <rect id="carnegie-science-center-digital-video-smash-jam-two-day-workshop" x="391px" y="47px" width="32px" height="59px" />
      <rect id="steeltown-entertainment-youth-and-media" x="63px" y="37px" width="11px" height="69px" />
      <rect id="pf-and-pca-filmmakers-youth-media-graphic-design" x="391px" y="6px" width="32px" height="35px" />
      <rect id="interview-magazine-andy-warhol-magazine--interview-" x="429px" y="6px" width="25px" height="35px" />
    </svg>

    <svg id="art-design" x="383" y="226" xmlns="http://www.w3.org/2000/svg">
      <rect id="colossal-colossal" x="38px" y="251px" width="69px" height="40px" />
      <rect id="labs-at-carnegie-library-of-pittsburgh-the-labsy-awards" x="113px" y="152px" width="53px" height="21px" />
      <rect id="tek-start-the-beauty-of-stem-makers-institute" x="49px" y="48px" width="31px" height="30px" />
      <rect id="pittsburgh-filmmaker-and-center-for-the-arts-manipulating-metals" x="49px" y="84px" width="58px" height="20px" />
      <rect id="carnegie-museums-of-art-and-natural-history-sketchbook" x="154px" y="251px" width="14px" height="40px" />
      <rect id="the-andy-warhol-museum-vertical-silkscreen-printing-with-stefan-hoffmann" x="113px" y="297px" width="35px" height="29px" />
      <rect id="pittsburgh-filmmaker-and-center-for-the-arts-creature-design-and-mask-making" x="172px" y="107px" width="25px" height="23px" />
      <rect id="mattress-factory-summer-art-cooperative" x="113px" y="332px" width="10px" height="34px" />
      <rect id="mcg-youth-and-arts-ceramics-sets" x="49px" y="110px" width="26px" height="36px" />
      <rect id="the-andy-warhol-museum-youth-open-studio" x="6px" y="333px" width="26px" height="33px" />
      <rect id="pittsburgh-filmmaker-and-center-for-the-arts-the-shop" x="49px" y="152px" width="58px" height="21px" />
      <rect id="carnegie-museums-of-art-and-natural-history-experimental-drawing-and-painting" x="174px" y="297px" width="23px" height="69px" />
      <rect id="carnegie-museums-of-art-and-natural-history-fiber-art" x="113px" y="48px" width="53px" height="30px" />
      <rect id="mcg-youth-and-arts-pillows-galore" x="172px" y="71px" width="25px" height="30px" />
      <rect id="evan-mirapaul-la-hutte-royal" x="6px" y="297px" width="26px" height="30px" />
      <rect id="pittsburgh-filmmaker-and-center-for-the-arts-drawing" x="70px" y="297px" width="37px" height="69px" />
      <rect id="carnegie-museums-of-art-and-natural-history-drawing-people" x="38px" y="297px" width="26px" height="30px" />
      <rect id="carnegie-museums-of-art-and-natural-history-youth-museum-institute---exhibit-design-lab" x="172px" y="213px" width="25px" height="10px" />
      <rect id="mcg-youth-and-arts-the-wide-world-of-photo" x="38px" y="333px" width="26px" height="33px" />
      <rect id="the-andy-warhol-museum-andy-warhol---pop-portraits-and-selfies" x="172px" y="174px" width="25px" height="33px" />
      <rect id="diy-sketch-a-real-building-" x="6px" y="6px" width="37px" height="36px" />
      <rect id="pittsburgh-filmmaker-and-center-for-the-arts-raku" x="146px" y="110px" width="20px" height="36px" />
      <rect id="pittsburgh-filmmaker-and-center-for-the-arts-graphic-design" x="6px" y="229px" width="101px" height="16px" />
      <rect id="pittsburgh-filmmaker-and-center-for-the-arts-high-fire-ceramics" x="6px" y="74px" width="37px" height="30px" />
      <rect id="deviant-art-deviantart" x="113px" y="251px" width="35px" height="40px" />
      <rect id="moma--moma-teens-online" x="174px" y="251px" width="23px" height="40px" />
      <rect id="pittsburgh-filmmaker-and-center-for-the-arts-stained-glass" x="172px" y="6px" width="25px" height="59px" />
      <rect id="the-andy-warhol-museum-online-weeeknd-factory" x="113px" y="179px" width="53px" height="13px" />
      <rect id="mcg-youth-and-arts-print-draw-paint" x="154px" y="297px" width="14px" height="29px" />
      <rect id="labs-at-carnegie-library-of-pittsburgh-fashion-design-workshops" x="6px" y="48px" width="37px" height="20px" />
      <rect id="open-ideo-adding-visual-goodness-to-your-ideas-" x="113px" y="198px" width="53px" height="25px" />
      <rect id="food-revolution-pittsburgh-cooking-club-at-harvest-and-create" x="113px" y="110px" width="27px" height="36px" />
      <rect id="carnegie-museums-of-art--interact" x="49px" y="198px" width="58px" height="25px" />
      <rect id="society-for-contemporary-craft-visit-scc-store" x="6px" y="110px" width="37px" height="36px" />
      <rect id="mcg-youth-and-arts-electric-avenue" x="6px" y="179px" width="37px" height="44px" />
      <rect id="carnegie-museums-of-art-and-natural-history-dream-house---sketch-to-structure" x="113px" y="6px" width="26px" height="36px" />
      <rect id="mcg-youth-and-arts-digital-expressions" x="49px" y="179px" width="58px" height="13px" />
      <rect id="society-for-contemporary-craft-drop-in-studio" x="81px" y="110px" width="26px" height="36px" />
      <rect id="carnegie-museums-of-art-and-natural-history-city-explorers---urban-designers" x="49px" y="6px" width="31px" height="36px" />
      <rect id="society-for-contemporary-craft-contemporary-craft-blog" x="86px" y="48px" width="21px" height="30px" />
      <rect id="labs-at-carnegie-library-of-pittsburgh-open-lab" x="6px" y="251px" width="26px" height="40px" />
      <rect id="tech-shop-steam003---textile-printing-and-sewing-" x="113px" y="84px" width="53px" height="20px" />
      <rect id="carnegie-museums-of-art-and-natural-history-you-are-here---pittsburgh-placemaking" x="145px" y="6px" width="21px" height="36px" />
      <rect id="pittsburgh-center-for-creative-reuse-the-remaker-playshop---sew-mend-make" x="172px" y="136px" width="25px" height="32px" />
      <rect id="diy-hack-a-t-shirt-" x="6px" y="152px" width="37px" height="21px" />
      <rect id="pittsburgh-filmmaker-and-center-for-the-arts-anime" x="113px" y="229px" width="84px" height="16px" />
      <rect id="mattress-factory-community-art-lab" x="129px" y="332px" width="39px" height="34px" />
      <rect id="design-boom-design-boom" x="86px" y="6px" width="21px" height="36px" />
    </svg>

    <svg id="coding-gaming" x="640" y="226" xmlns="http://www.w3.org/2000/svg">
      <rect id="instructables-create-tumblr-account" x="190px" y="295px" width="37px" height="71px" />
      <rect id="appshed-academy" x="263px" y="346px" width="34px" height="20px" />
      <rect id="grow-a-generation-mobile-app-development" x="263px" y="320px" width="14px" height="20px" />
      <rect id="girl-develop-it-intermediate-html-and-css" x="6px" y="221px" width="28px" height="19px" />
      <rect id="p2pu-webmaking-101" x="40px" y="221px" width="69px" height="19px" />
      <rect id="digital-media-academy-online-fundamentals-of-programming" x="303px" y="6px" width="21px" height="102px" />
      <rect id="stem-advanced-technologies-for-kids-mobile-app-design" x="233px" y="320px" width="24px" height="46px" />
      <rect id="webmaker-training-html-basics" x="6px" y="246px" width="28px" height="29px" />
      <rect id="codeorg-code-combat" x="83px" y="51px" width="20px" height="39px" />
      <rect id="neighborhood-learning-alliance-tech-warriors-training" x="64px" y="96px" width="78px" height="24px" />
      <rect id="codeorg-studio-activities" x="148px" y="51px" width="39px" height="39px" />
      <rect id="institute-of-play-through-the-arcade" x="303px" y="295px" width="21px" height="71px" />
      <rect id="girl-develop-it-introduction-to-web-concepts" x="40px" y="281px" width="19px" height="85px" />
      <rect id="made-w-code-watch-the-film" x="115px" y="281px" width="29px" height="17px" />
      <rect id="carnegie-science-center-click---spy-school" x="115px" y="304px" width="29px" height="62px" />
      <rect id="codecademy-python" x="6px" y="6px" width="52px" height="39px" />
      <rect id="carnegie-science-center--click---spy-mission" x="65px" y="304px" width="44px" height="62px" />
      <rect id="diyorg-make-a-board-game" x="22px" y="126px" width="36px" height="49px" />
      <rect id="webmaker-training-building-on-the-web" x="115px" y="181px" width="69px" height="17px" />
      <rect id="cs2n-rumbleblocks" x="263px" y="295px" width="34px" height="19px" />
      <rect id="w3-schools-html5-tutorial" x="115px" y="204px" width="69px" height="11px" />
      <rect id="girl-develop-it-html-intro" x="190px" y="204px" width="107px" height="17px" />
      <rect id="the-jerome-bettis-bus-stops-here-foundation-the-cyber-bus-computer-engineering-program" x="64px" y="51px" width="13px" height="39px" />
      <rect id="diyorg-design-a-body-game" x="238px" y="96px" width="59px" height="24px" />
      <rect id="lifelong-kindergarten-group-at-the-mit-media-lab-scratch" x="6px" y="51px" width="52px" height="39px" />
      <rect id="assemble-make-it" x="190px" y="227px" width="107px" height="20px" />
      <rect id="stem-advanced-technologies-for-kids-video-game-design" x="190px" y="126px" width="42px" height="22px" />
      <rect id="girl-develop-it-introduction-to-git-and-github" x="193px" y="51px" width="39px" height="39px" />
      <rect id="women-at-scs-school-of-computer-science---carnegie-mellon-university-creative-tech-nights" x="238px" y="6px" width="59px" height="39px" />
      <rect id="codecademy-make-a-website" x="190px" y="253px" width="37px" height="36px" />
      <rect id="gamesalad-game-salad" x="6px" y="181px" width="52px" height="34px" />
      <rect id="global-game-jam-2015-global-game-jam-games" x="233px" y="295px" width="24px" height="19px" />
      <rect id="carnegie-mellon-university-school-of-computer-science-leap-at-cmu" x="64px" y="6px" width="52px" height="39px" />
      <rect id="diyorg-set-up-a-virtual-machine-with-ubuntu-" x="193px" y="6px" width="39px" height="39px" />
      <rect id="schell-games-gamesprout" x="303px" y="114px" width="21px" height="103px" />
      <rect id="computer-science-education-week-thinkersmith-unplugged-hour-of-code-activity" x="167px" y="6px" width="20px" height="39px" />
      <rect id="id-tech-adventures-in-minecraft-game-design" x="64px" y="126px" width="78px" height="22px" />
      <rect id="school-of-open-get-to-know-the-hackasaurus-xray-goggles" x="150px" y="295px" width="34px" height="71px" />
      <rect id="e-line-media-gamestar-mechanic" x="148px" y="126px" width="36px" height="22px" />
      <rect id="webmaker-tools-appmaker" x="283px" y="320px" width="14px" height="20px" />
      <rect id="brain-pop-digital-etiquette-quiz" x="6px" y="281px" width="28px" height="85px" />
      <rect id="mozilla-webmaker-x-ray-goggles" x="303px" y="267px" width="21px" height="22px" />
      <rect id="diyorg-minecrafter" x="64px" y="154px" width="120px" height="21px" />
      <rect id="brain-pop-digital-etiquette" x="65px" y="281px" width="44px" height="17px" />
      <rect id="girl-develop-it-web-accessibility" x="40px" y="246px" width="69px" height="29px" />
      <rect id="id-tech-intro-to-programming-with-scratch-and-javascript" x="238px" y="51px" width="59px" height="39px" />
      <rect id="codeorg-make-a-flappy-game" x="148px" y="96px" width="84px" height="24px" />
      <rect id="microsoft-virtual-academy-hour-of-code-event-training" x="122px" y="6px" width="39px" height="39px" />
      <rect id="id-tech-game-programming-for-apple-ios-and-android-with-unity" x="6px" y="126px" width="10px" height="49px" />
      <rect id="tumblr-how-to-create-a-custom-html-theme" x="190px" y="181px" width="107px" height="17px" />
      <rect id="remake-learning-digital-learning-tools" x="64px" y="181px" width="45px" height="34px" />
      <rect id="tumblr-theme-garden" x="115px" y="221px" width="29px" height="19px" />
      <rect id="codeorg-20-hour-intro-course" x="109px" y="51px" width="33px" height="39px" />
      <rect id="diyorg-gather-website-inspiration" x="150px" y="221px" width="34px" height="68px" />
      <rect id="codecademy-make-an-interactive-website" x="303px" y="223px" width="21px" height="38px" />
      <rect id="mozilla-webmaker-make-a-meme" x="233px" y="253px" width="64px" height="36px" />
      <rect id="institute-of-play-gamekit-challenge-pack---the-basics" x="238px" y="126px" width="59px" height="22px" />
      <rect id="diyorg-make-a-pen-and-paper-game" x="190px" y="154px" width="42px" height="21px" />
      <rect id="id-tech-mobile-game-design-for-iphone-and-android" x="238px" y="154px" width="59px" height="21px" />
      <rect id="webmaker-tools-thimble" x="115px" y="246px" width="29px" height="29px" />
      <rect id="id-tech-java-programming" x="6px" y="96px" width="52px" height="24px" />
    </svg>

    <svg id="food-gardening" x="60" y="652" xmlns="http://www.w3.org/2000/svg">
      <rect id="food-revolution-pittsburgh-cooking-demos" x="35px" y="194px" width="43px" height="53px" />
      <rect id="pa-summer-food-service-program-summer-food-service-" x="35px" y="6px" width="10px" height="64px" />
      <rect id="food-n-me-various-activities" x="135px" y="194px" width="42px" height="53px" />
      <rect id="healcrest-farm-farm-fresh-icepops" x="233px" y="6px" width="30px" height="64px" />
      <rect id="usda-choose-my-plate-teen-girls" x="135px" y="156px" width="42px" height="32px" />
      <rect id="slow-foods-youth-network-slow-food-youth-network-eat-the-future-you-want" x="183px" y="194px" width="16px" height="53px" />
      <rect id="food-revolution-day-recipes" x="238px" y="194px" width="25px" height="20px" />
      <rect id="phipps-conservatory-homegrown-challenges" x="84px" y="76px" width="93px" height="23px" />
      <rect id="grow-pittsburgh-start-a-garden" x="205px" y="105px" width="27px" height="45px" />
      <rect id="wilkinsburg-public-library-unmask-super-snacks" x="84px" y="253px" width="45px" height="59px" />
      <rect id="eat-local-challenge-10-reasons-to-eat-local-food" x="154px" y="6px" width="23px" height="64px" />
      <rect id="saint-paul-episcopal-church-mission-trip" x="84px" y="6px" width="31px" height="64px" />
      <rect id="carnegie-library-of-pittsburgh-cooking-for-teens-" x="205px" y="270px" width="36px" height="11px" />
      <rect id="phipps-conservatory-homegrown-hero-badge-resources-" x="183px" y="76px" width="80px" height="23px" />
      <rect id="fda-read-the-label-youth-outreach-campaign-" x="238px" y="156px" width="25px" height="32px" />
      <rect id="food-revolution-pittsburgh-cooking-club" x="35px" y="253px" width="43px" height="59px" />
      <rect id="local-harvest-local-farmers-markets" x="247px" y="253px" width="16px" height="59px" />
      <rect id="take-part-place-at-the-table" x="6px" y="6px" width="23px" height="64px" />
      <rect id="fit-webmd-fit-webmd-teen" x="183px" y="156px" width="16px" height="32px" />
      <rect id="winter-root-wild-edibles-app" x="6px" y="76px" width="23px" height="74px" />
      <rect id="fox-master-chef-jr" x="84px" y="194px" width="45px" height="53px" />
      <rect id="food-n-me-smash-your-food" x="6px" y="156px" width="23px" height="32px" />
      <rect id="teen-observer-alice-waters-article" x="183px" y="6px" width="23px" height="64px" />
      <rect id="foraging-pittsburgh-wild-food-walks" x="212px" y="6px" width="15px" height="64px" />
      <rect id="cooking-with-rockstars-cooking-with-rockstars" x="205px" y="220px" width="58px" height="27px" />
      <rect id="sam-stern-light-meals-and-snacks" x="205px" y="287px" width="36px" height="25px" />
      <rect id="food-revolution-pittsburgh-cooking-club-at-summer-dreamers" x="205px" y="194px" width="27px" height="20px" />
      <rect id="no-kid-hungry-no-kid-hungry-summer-" x="51px" y="6px" width="27px" height="64px" />
      <rect id="food-revolution-pittsburgh-cooking-club-at-harvest-and-create" x="205px" y="253px" width="36px" height="11px" />
      <rect id="wild-purveyors-tour-of-store" x="35px" y="76px" width="43px" height="11px" />
      <rect id="phipps-conservatory-phipps-cafe" x="135px" y="253px" width="42px" height="59px" />
      <rect id="center-for-disease--control-bam-body-and-mind" x="238px" y="105px" width="25px" height="45px" />
      <rect id="the-white-house-lets-move-kids" x="35px" y="156px" width="43px" height="32px" />
      <rect id="phipps-conservatory-12-month-gardening-tips" x="84px" y="105px" width="45px" height="45px" />
      <rect id="saint-paul-episcopal-church-saint-francis-garden" x="135px" y="105px" width="42px" height="45px" />
      <rect id="diy-diy-gardener" x="183px" y="105px" width="16px" height="45px" />
      <rect id="slow-foods-origins-of-taste" x="183px" y="253px" width="16px" height="59px" />
      <rect id="usda-choose-my-plate-teen-boys" x="205px" y="156px" width="27px" height="32px" />
      <rect id="falling-fruit-mapping-the-urban-harvest" x="121px" y="6px" width="27px" height="64px" />
      <rect id="webmd-and-whitehouse-webmd-town-hall" x="35px" y="93px" width="43px" height="57px" />
      <rect id="fit-webmd-fit-webmd-handbook" x="6px" y="194px" width="23px" height="118px" />
    </svg>

    <svg id="building-making" x="383" y="652" xmlns="http://www.w3.org/2000/svg">
      <rect id="assemble-youth-maker-night" x="65px" y="66px" width="112px" height="30px" />
      <rect id="childrens-museum-of-pittsburgh-the-makeshop-show" x="107px" y="24px" width="31px" height="36px" />
      <rect id="maker-faire--visit-maker-faire-pittsburgh" x="183px" y="136px" width="14px" height="67px" />
      <rect id="lego-lego-sets" x="6px" y="6px" width="53px" height="12px" />
      <rect id="maker-media-make-magazine" x="84px" y="156px" width="59px" height="31px" />
      <rect id="hack-pittsburgh-visit-hackpittsburgh" x="6px" y="102px" width="53px" height="48px" />
      <rect id="tech-shop-visit-tech-shop" x="6px" y="193px" width="53px" height="42px" />
      <rect id="pbs-kids-pbs-design-squad---watch" x="183px" y="267px" width="14px" height="45px" />
      <rect id="gtech-strategies-412-build" x="183px" y="209px" width="14px" height="26px" />
      <rect id="super-awesome-sylvia-show-super-awesome-sylvia---episodes" x="113px" y="267px" width="64px" height="45px" />
      <rect id="built-by-kids-activities" x="6px" y="66px" width="53px" height="30px" />
      <rect id="ted-talks-life-lessons-through-tinkering" x="144px" y="6px" width="53px" height="18px" />
      <rect id="assemble-saturday-crafternoons-" x="183px" y="83px" width="14px" height="47px" />
      <rect id="pbs-kids-pbs-design-squad---build" x="183px" y="241px" width="14px" height="20px" />
      <rect id="diy-make-a-rube-goldberg-machine-" x="65px" y="24px" width="36px" height="36px" />
      <rect id="society-for-contemporary-craft-drop-in-studio" x="65px" y="102px" width="13px" height="48px" />
      <rect id="assemble-m3---materials-media-and-me" x="84px" y="102px" width="59px" height="48px" />
      <rect id="slamacow-minecraft-leaking-into-the-real-world---minecraft-animation" x="144px" y="30px" width="33px" height="30px" />
      <rect id="childrens-museum-of-pittsburgh-makeshop" x="149px" y="102px" width="28px" height="48px" />
      <rect id="diy-minecrafter" x="183px" y="30px" width="14px" height="47px" />
      <rect id="northern-tier-regional-library-cube-head-superheroes" x="6px" y="156px" width="53px" height="31px" />
      <rect id="assemble-learning-parties" x="65px" y="156px" width="13px" height="31px" />
      <rect id="diy-lego-master" x="65px" y="6px" width="73px" height="12px" />
      <rect id="assemble-assemble-afterschool" x="149px" y="156px" width="28px" height="31px" />
      <rect id="assemble-unblurred" x="6px" y="24px" width="53px" height="36px" />
      <rect id="diy-sketch-a-real-building-" x="84px" y="241px" width="93px" height="20px" />
      <rect id="pittsburgh-center-for-creative-reuse-the-remaker-playshop---sew-mend-make" x="65px" y="193px" width="13px" height="42px" />
      <rect id="millvale-community-library-maker-thursdays" x="84px" y="193px" width="93px" height="42px" />
      <rect id="assemble-teens-as-teachers" x="84px" y="267px" width="23px" height="45px" />
      <rect id="instructables-build-something" x="6px" y="241px" width="53px" height="71px" />
      <rect id="carnegie-science-center-fab-lab" x="65px" y="241px" width="13px" height="71px" />
    </svg>

    <svg id="robotics" x="640" y="652" xmlns="http://www.w3.org/2000/svg">
      <rect id="super-awesome-sylvia-watercolorbot" x="183px" y="74px" width="93px" height="35px" />
      <rect id="carnegie-mellon-university-school-of-computer-science-leap-at-cmu" x="117px" y="262px" width="60px" height="22px" />
      <rect id="christopher-atkeson-build-baymax" x="84px" y="74px" width="93px" height="35px" />
      <rect id="carnegie-library-of-pittsburgh-weekly-workshop-at-clp---allegheny" x="84px" y="6px" width="60px" height="62px" />
      <rect id="wilkinsburg-public-library-unmask---bristle-bot-racers" x="183px" y="192px" width="33px" height="64px" />
      <rect id="carnegie-mellon-university-rumbleblocks-" x="183px" y="6px" width="47px" height="62px" />
      <rect id="pittsburgh-first-get-involved" x="6px" y="179px" width="72px" height="11px" />
      <rect id="walt-disney-animation-studios-big-hero-6" x="6px" y="23px" width="72px" height="52px" />
      <rect id="carnegie-mellon-create-lab-hummingbird-robotics-kit" x="183px" y="115px" width="93px" height="30px" />
      <rect id="digital-media-academy-online-fundamentals-of-programming" x="117px" y="290px" width="60px" height="22px" />
      <rect id="assemble-summer-dreamers" x="236px" y="39px" width="88px" height="29px" />
      <rect id="carnegie-science-center-roboworld" x="150px" y="6px" width="27px" height="62px" />
      <rect id="grow-a-generation-audacious-robotocists" x="282px" y="102px" width="42px" height="79px" />
      <rect id="greene-academy-advanced-robotics" x="183px" y="151px" width="93px" height="35px" />
      <rect id="id-tech-intro-to-programming-with-scratch-and-javascript" x="6px" y="268px" width="72px" height="16px" />
      <rect id="greene-academy-ev3-lego-robotics" x="84px" y="115px" width="93px" height="30px" />
      <rect id="synn-labs-music-video-with-rube-goldberg-" x="282px" y="187px" width="42px" height="70px" />
      <rect id="diy-make-a-rube-goldberg-machine" x="84px" y="192px" width="27px" height="120px" />
      <rect id="girls-of-steel-robotics-the-girls-of-steel-robotics" x="282px" y="74px" width="42px" height="22px" />
      <rect id="carnegie-science-center-roboworld-activities" x="6px" y="6px" width="72px" height="11px" />
      <rect id="carnegie-mellon-robotics-academy-expedition-atlantis-" x="236px" y="6px" width="88px" height="27px" />
      <rect id="grow-a-generation-engineering-your-passion" x="6px" y="196px" width="72px" height="42px" />
      <rect id="carnegie-mellon-university--cookie-vs-creme---a-robotic-twist" x="6px" y="133px" width="72px" height="17px" />
      <rect id="carnegie-mellon-robotics-academy-robotc" x="6px" y="290px" width="72px" height="22px" />
      <rect id="lifelong-kindergarten-group-at-the-mit-media-lab-scratch" x="6px" y="244px" width="72px" height="18px" />
      <rect id="carnegie-science-center-chain-reaction-contraption-contest" x="117px" y="192px" width="60px" height="64px" />
      <rect id="sarah-heinz-house-join-sharp" x="84px" y="151px" width="27px" height="35px" />
      <rect id="deep-local-nike-chalkbot" x="222px" y="192px" width="54px" height="64px" />
      <rect id="carnegie-library-of-pittsburgh-the-labs-at-clp---main---robotics-workshop-with-girls-of-steel" x="117px" y="151px" width="60px" height="35px" />
      <rect id="carnegie-mellon-robotics-academy-cs2n" x="282px" y="263px" width="42px" height="49px" />
      <rect id="carnegie-mellon-robotics-academy-robots-virtual-world" x="6px" y="156px" width="72px" height="17px" />
      <rect id="robocup-manuela-veloso---robocup-champion" x="6px" y="81px" width="72px" height="46px" />
      <rect id="id-tech-java-programming" x="183px" y="262px" width="93px" height="50px" />
    </svg>

  </g>
</svg>
