<svg width="726px" height="726px" xmlns="http://www.w3.org/2000/svg">
  <g transform="translate(107.0 107.0) rotate(45 256.0 256.0)">
    <rect id="0" x="4px" y="4px" width="102px" height="34px" />
    <rect id="1" x="110px" y="4px" width="39px" height="34px" />
    <rect id="2" x="153px" y="4px" width="17px" height="34px" />
    <rect id="3" x="174px" y="4px" width="17px" height="34px" />
    <rect id="4" x="195px" y="4px" width="158px" height="34px" />
    <rect id="5" x="357px" y="4px" width="151px" height="38px" />
    <rect id="6" x="4px" y="42px" width="102px" height="27px" />
    <rect id="7" x="110px" y="42px" width="60px" height="21px" />
    <rect id="8" x="174px" y="42px" width="79px" height="45px" />
    <rect id="9" x="257px" y="42px" width="96px" height="45px" />
    <rect id="10" x="357px" y="46px" width="23px" height="41px" />
    <rect id="11" x="384px" y="46px" width="124px" height="24px" />
    <rect id="12" x="110px" y="67px" width="60px" height="111px" />
    <rect id="13" x="4px" y="73px" width="102px" height="58px" />
    <rect id="14" x="384px" y="74px" width="124px" height="44px" />
    <rect id="15" x="174px" y="91px" width="36px" height="87px" />
    <rect id="16" x="214px" y="91px" width="39px" height="15px" />
    <rect id="17" x="257px" y="91px" width="123px" height="34px" />
    <rect id="18" x="214px" y="110px" width="39px" height="110px" />
    <rect id="19" x="384px" y="122px" width="124px" height="37px" />
    <rect id="20" x="257px" y="129px" width="22px" height="91px" />
    <rect id="21" x="283px" y="129px" width="97px" height="91px" />
    <rect id="22" x="4px" y="135px" width="102px" height="42px" />
    <rect id="23" x="384px" y="163px" width="22px" height="57px" />
    <rect id="24" x="410px" y="163px" width="98px" height="57px" />
    <rect id="25" x="4px" y="181px" width="102px" height="65px" />
    <rect id="26" x="110px" y="182px" width="100px" height="64px" />
    <rect id="27" x="214px" y="224px" width="39px" height="130px" />
    <rect id="28" x="257px" y="224px" width="26px" height="130px" />
    <rect id="29" x="287px" y="224px" width="29px" height="130px" />
    <rect id="30" x="320px" y="224px" width="60px" height="60px" />
    <rect id="31" x="384px" y="224px" width="54px" height="60px" />
    <rect id="32" x="442px" y="224px" width="66px" height="60px" />
    <rect id="33" x="4px" y="250px" width="102px" height="71px" />
    <rect id="34" x="110px" y="250px" width="18px" height="71px" />
    <rect id="35" x="132px" y="250px" width="78px" height="71px" />
    <rect id="36" x="320px" y="288px" width="60px" height="66px" />
    <rect id="37" x="384px" y="288px" width="124px" height="66px" />
    <rect id="38" x="4px" y="325px" width="102px" height="20px" />
    <rect id="39" x="110px" y="325px" width="100px" height="20px" />
    <rect id="40" x="4px" y="349px" width="102px" height="24px" />
    <rect id="41" x="110px" y="349px" width="100px" height="24px" />
    <rect id="42" x="214px" y="358px" width="39px" height="150px" />
    <rect id="43" x="257px" y="358px" width="123px" height="32px" />
    <rect id="44" x="384px" y="358px" width="34px" height="32px" />
    <rect id="45" x="422px" y="358px" width="86px" height="32px" />
    <rect id="46" x="4px" y="377px" width="102px" height="131px" />
    <rect id="47" x="110px" y="377px" width="36px" height="16px" />
    <rect id="48" x="150px" y="377px" width="60px" height="131px" />
    <rect id="49" x="257px" y="394px" width="35px" height="36px" />
    <rect id="50" x="296px" y="394px" width="84px" height="114px" />
    <rect id="51" x="384px" y="394px" width="34px" height="57px" />
    <rect id="52" x="422px" y="394px" width="5px" height="33px" />
    <rect id="53" x="431px" y="394px" width="77px" height="33px" />
    <rect id="54" x="110px" y="397px" width="36px" height="34px" />
    <rect id="55" x="422px" y="431px" width="5px" height="20px" />
    <rect id="56" x="431px" y="431px" width="12px" height="20px" />
    <rect id="57" x="447px" y="431px" width="61px" height="20px" />
    <rect id="58" x="257px" y="434px" width="35px" height="74px" />
    <rect id="59" x="110px" y="435px" width="36px" height="73px" />
    <rect id="60" x="384px" y="455px" width="43px" height="53px" />
    <rect id="61" x="431px" y="455px" width="77px" height="53px" />
  </g>
</svg>
