<svg width="545px" height="545px" xmlns="http://www.w3.org/2000/svg">
  <g transform="translate(144.5 16.5) rotate(45 128.0 256.0)">
    <rect id="0" x="4px" y="4px" width="50px" height="31px" />
    <rect id="1" x="58px" y="4px" width="30px" height="31px" />
    <rect id="2" x="92px" y="4px" width="55px" height="31px" />
    <rect id="3" x="151px" y="4px" width="25px" height="31px" />
    <rect id="4" x="180px" y="4px" width="15px" height="31px" />
    <rect id="5" x="199px" y="4px" width="53px" height="31px" />
    <rect id="6" x="4px" y="39px" width="50px" height="12px" />
    <rect id="7" x="58px" y="39px" width="30px" height="97px" />
    <rect id="8" x="92px" y="39px" width="23px" height="97px" />
    <rect id="9" x="119px" y="39px" width="28px" height="97px" />
    <rect id="10" x="151px" y="39px" width="25px" height="19px" />
    <rect id="11" x="180px" y="39px" width="72px" height="19px" />
    <rect id="12" x="4px" y="55px" width="50px" height="37px" />
    <rect id="13" x="151px" y="62px" width="13px" height="74px" />
    <rect id="14" x="168px" y="62px" width="8px" height="39px" />
    <rect id="15" x="180px" y="62px" width="28px" height="39px" />
    <rect id="16" x="212px" y="62px" width="40px" height="39px" />
    <rect id="17" x="4px" y="96px" width="50px" height="44px" />
    <rect id="18" x="168px" y="105px" width="84px" height="31px" />
    <rect id="19" x="58px" y="140px" width="106px" height="22px" />
    <rect id="20" x="168px" y="140px" width="84px" height="22px" />
    <rect id="21" x="4px" y="144px" width="50px" height="54px" />
    <rect id="22" x="58px" y="166px" width="10px" height="32px" />
    <rect id="23" x="72px" y="166px" width="92px" height="32px" />
    <rect id="24" x="168px" y="166px" width="84px" height="32px" />
    <rect id="25" x="4px" y="202px" width="50px" height="24px" />
    <rect id="26" x="58px" y="202px" width="106px" height="24px" />
    <rect id="27" x="168px" y="202px" width="84px" height="24px" />
    <rect id="28" x="4px" y="230px" width="50px" height="34px" />
    <rect id="29" x="58px" y="230px" width="55px" height="34px" />
    <rect id="30" x="117px" y="230px" width="47px" height="34px" />
    <rect id="31" x="168px" y="230px" width="84px" height="34px" />
    <rect id="32" x="4px" y="268px" width="50px" height="35px" />
    <rect id="33" x="58px" y="268px" width="55px" height="14px" />
    <rect id="34" x="117px" y="268px" width="25px" height="14px" />
    <rect id="35" x="146px" y="268px" width="106px" height="26px" />
    <rect id="36" x="58px" y="286px" width="84px" height="17px" />
    <rect id="37" x="146px" y="298px" width="67px" height="29px" />
    <rect id="38" x="217px" y="298px" width="35px" height="29px" />
    <rect id="39" x="4px" y="307px" width="50px" height="27px" />
    <rect id="40" x="58px" y="307px" width="8px" height="27px" />
    <rect id="41" x="70px" y="307px" width="72px" height="27px" />
    <rect id="42" x="146px" y="331px" width="67px" height="22px" />
    <rect id="43" x="217px" y="331px" width="35px" height="22px" />
    <rect id="44" x="4px" y="338px" width="50px" height="29px" />
    <rect id="45" x="58px" y="338px" width="84px" height="29px" />
    <rect id="46" x="146px" y="357px" width="65px" height="10px" />
    <rect id="47" x="215px" y="357px" width="37px" height="10px" />
    <rect id="48" x="4px" y="371px" width="50px" height="59px" />
    <rect id="49" x="58px" y="371px" width="6px" height="16px" />
    <rect id="50" x="68px" y="371px" width="74px" height="16px" />
    <rect id="51" x="146px" y="371px" width="65px" height="16px" />
    <rect id="52" x="215px" y="371px" width="37px" height="137px" />
    <rect id="53" x="58px" y="391px" width="6px" height="39px" />
    <rect id="54" x="68px" y="391px" width="74px" height="39px" />
    <rect id="55" x="146px" y="391px" width="65px" height="18px" />
    <rect id="56" x="146px" y="413px" width="65px" height="17px" />
    <rect id="57" x="4px" y="434px" width="60px" height="74px" />
    <rect id="58" x="68px" y="434px" width="48px" height="9px" />
    <rect id="59" x="120px" y="434px" width="22px" height="9px" />
    <rect id="60" x="146px" y="434px" width="65px" height="74px" />
    <rect id="61" x="68px" y="447px" width="74px" height="61px" />
  </g>
</svg>
