<svg width="182" height="182" version="1.1" xmlns="http://www.w3.org/2000/svg">
  <g transform="translate(27.0 27.0) rotate(45 64.0 64.0)">
    <rect id="456" x="2" y="2" width="4" height="11" />
    <rect id="567" x="8" y="2" width="43" height="11" />
    <rect x="53" y="2" width="7" height="11" />
    <rect x="62" y="2" width="34" height="11" />
    <rect x="98" y="2" width="28" height="11" />
    <rect x="2" y="15" width="4" height="17" />
    <rect x="8" y="15" width="37" height="17" />
    <rect x="47" y="15" width="13" height="48" />
    <rect x="62" y="15" width="34" height="17" />
    <rect x="98" y="15" width="28" height="7" />
    <rect x="98" y="24" width="4" height="4" />
    <rect x="104" y="24" width="22" height="4" />
    <rect x="98" y="30" width="28" height="23" />
    <rect x="2" y="34" width="43" height="14" />
    <rect x="62" y="34" width="34" height="6" />
    <rect x="62" y="42" width="8" height="21" />
    <rect x="72" y="42" width="24" height="21" />
    <rect x="2" y="50" width="5" height="20" />
    <rect x="9" y="50" width="36" height="10" />
    <rect x="98" y="55" width="28" height="8" />
    <rect x="9" y="62" width="22" height="8" />
    <rect x="33" y="62" width="12" height="8" />
    <rect x="47" y="65" width="23" height="5" />
    <rect x="72" y="65" width="9" height="5" />
    <rect x="83" y="65" width="13" height="61" />
    <rect x="98" y="65" width="28" height="11" />
    <rect x="2" y="72" width="29" height="12" />
    <rect x="33" y="72" width="12" height="54" />
    <rect x="47" y="72" width="23" height="21" />
    <rect x="72" y="72" width="9" height="21" />
    <rect x="98" y="78" width="28" height="11" />
    <rect x="2" y="86" width="29" height="9" />
    <rect x="98" y="91" width="14" height="35" />
    <rect x="114" y="91" width="4" height="5" />
    <rect x="120" y="91" width="6" height="35" />
    <rect x="47" y="95" width="23" height="31" />
    <rect x="72" y="95" width="9" height="31" />
    <rect x="2" y="97" width="8" height="29" />
    <rect x="12" y="97" width="19" height="29" />
    <rect x="114" y="98" width="4" height="28" />
  </g>
</svg>
